<?xml version="1.0" encoding="UTF-8" standalone="no"?>
<!DOCTYPE svg PUBLIC "-//W3C//DTD SVG 1.1//EN"
 "http://www.w3.org/Graphics/SVG/1.1/DTD/svg11.dtd">
<!-- Generated by graphviz version 2.49.3 (20211023.0002)
 -->
<!-- Title: G Pages: 1 -->
<svg width="1717pt" height="1176pt"
 viewBox="0.00 0.00 1717.20 1176.40" xmlns="http://www.w3.org/2000/svg" xmlns:xlink="http://www.w3.org/1999/xlink">
<g id="graph0" class="graph" transform="scale(1 1) rotate(0) translate(21.6 1154.8)">
<title>G</title>
<polygon fill="#111111" stroke="transparent" points="-21.6,21.6 -21.6,-1154.8 1695.6,-1154.8 1695.6,21.6 -21.6,21.6"/>
<!-- address.ts -->
<g id="node1" class="node">
<title>address.ts</title>
<path fill="none" stroke="#c6c5fe" d="M306.33,-608.7C306.33,-608.7 240.67,-608.7 240.67,-608.7 236.83,-608.7 233,-604.86 233,-601.03 233,-601.03 233,-593.36 233,-593.36 233,-589.53 236.83,-585.7 240.67,-585.7 240.67,-585.7 306.33,-585.7 306.33,-585.7 310.17,-585.7 314,-589.53 314,-593.36 314,-593.36 314,-601.03 314,-601.03 314,-604.86 310.17,-608.7 306.33,-608.7"/>
<text text-anchor="middle" x="273.5" y="-593.5" font-family="Arial" font-size="14.00" fill="#c6c5fe">address.ts</text>
</g>
<!-- lib/functional/mod.ts -->
<g id="node2" class="node">
<title>lib/functional/mod.ts</title>
<path fill="none" stroke="#c6c5fe" d="M1239.83,-758.7C1239.83,-758.7 1115.17,-758.7 1115.17,-758.7 1111.33,-758.7 1107.5,-754.86 1107.5,-751.03 1107.5,-751.03 1107.5,-743.36 1107.5,-743.36 1107.5,-739.53 1111.33,-735.7 1115.17,-735.7 1115.17,-735.7 1239.83,-735.7 1239.83,-735.7 1243.67,-735.7 1247.5,-739.53 1247.5,-743.36 1247.5,-743.36 1247.5,-751.03 1247.5,-751.03 1247.5,-754.86 1243.67,-758.7 1239.83,-758.7"/>
<text text-anchor="middle" x="1177.5" y="-743.5" font-family="Arial" font-size="14.00" fill="#c6c5fe">lib/functional/mod.ts</text>
</g>
<!-- address.ts&#45;&gt;lib/functional/mod.ts -->
<g id="edge1" class="edge">
<title>address.ts&#45;&gt;lib/functional/mod.ts</title>
<path fill="none" stroke="#757575" d="M302.84,-608.83C319.76,-615.37 341.82,-623.2 362,-628.2 627,-693.83 950.08,-727.78 1096.97,-740.78"/>
<polygon fill="#757575" stroke="#757575" points="1096.97,-744.29 1107.24,-741.68 1097.58,-737.32 1096.97,-744.29"/>
</g>
<!-- lib/numbers/mod.ts -->
<g id="node3" class="node">
<title>lib/numbers/mod.ts</title>
<path fill="none" stroke="#c6c5fe" d="M974.83,-487.7C974.83,-487.7 855.17,-487.7 855.17,-487.7 851.33,-487.7 847.5,-483.86 847.5,-480.03 847.5,-480.03 847.5,-472.36 847.5,-472.36 847.5,-468.53 851.33,-464.7 855.17,-464.7 855.17,-464.7 974.83,-464.7 974.83,-464.7 978.67,-464.7 982.5,-468.53 982.5,-472.36 982.5,-472.36 982.5,-480.03 982.5,-480.03 982.5,-483.86 978.67,-487.7 974.83,-487.7"/>
<text text-anchor="middle" x="915" y="-472.5" font-family="Arial" font-size="14.00" fill="#c6c5fe">lib/numbers/mod.ts</text>
</g>
<!-- address.ts&#45;&gt;lib/numbers/mod.ts -->
<g id="edge2" class="edge">
<title>address.ts&#45;&gt;lib/numbers/mod.ts</title>
<path fill="none" stroke="#757575" d="M314.41,-604.95C329.29,-607.48 346.36,-609.95 362,-611.2 428.46,-616.48 446.06,-621.04 512,-611.2 653.58,-590.07 812,-523.16 880,-492.2"/>
<polygon fill="#757575" stroke="#757575" points="881.74,-495.25 889.37,-487.9 878.82,-488.89 881.74,-495.25"/>
</g>
<!-- lib/tuple.ts -->
<g id="node4" class="node">
<title>lib/tuple.ts</title>
<path fill="none" stroke="#cfffac" d="M947.33,-446.7C947.33,-446.7 882.67,-446.7 882.67,-446.7 878.83,-446.7 875,-442.86 875,-439.03 875,-439.03 875,-431.36 875,-431.36 875,-427.53 878.83,-423.7 882.67,-423.7 882.67,-423.7 947.33,-423.7 947.33,-423.7 951.17,-423.7 955,-427.53 955,-431.36 955,-431.36 955,-439.03 955,-439.03 955,-442.86 951.17,-446.7 947.33,-446.7"/>
<text text-anchor="middle" x="915" y="-431.5" font-family="Arial" font-size="14.00" fill="#cfffac">lib/tuple.ts</text>
</g>
<!-- address.ts&#45;&gt;lib/tuple.ts -->
<g id="edge3" class="edge">
<title>address.ts&#45;&gt;lib/tuple.ts</title>
<path fill="none" stroke="#757575" d="M314.27,-589.63C361.65,-580.36 443.08,-563.58 512,-545.2 640.34,-510.96 667.9,-486.46 797,-455.2 819.12,-449.84 843.92,-445.38 864.98,-442.05"/>
<polygon fill="#757575" stroke="#757575" points="865.65,-445.49 874.99,-440.5 864.58,-438.57 865.65,-445.49"/>
</g>
<!-- types/address.ts -->
<g id="node5" class="node">
<title>types/address.ts</title>
<path fill="none" stroke="#c6c5fe" d="M705.83,-454.7C705.83,-454.7 603.17,-454.7 603.17,-454.7 599.33,-454.7 595.5,-450.86 595.5,-447.03 595.5,-447.03 595.5,-439.36 595.5,-439.36 595.5,-435.53 599.33,-431.7 603.17,-431.7 603.17,-431.7 705.83,-431.7 705.83,-431.7 709.67,-431.7 713.5,-435.53 713.5,-439.36 713.5,-439.36 713.5,-447.03 713.5,-447.03 713.5,-450.86 709.67,-454.7 705.83,-454.7"/>
<text text-anchor="middle" x="654.5" y="-439.5" font-family="Arial" font-size="14.00" fill="#c6c5fe">types/address.ts</text>
</g>
<!-- address.ts&#45;&gt;types/address.ts -->
<g id="edge4" class="edge">
<title>address.ts&#45;&gt;types/address.ts</title>
<path fill="none" stroke="#757575" d="M309.68,-585.66C357.28,-569.33 444.05,-536.99 512,-497.2 529.49,-486.95 529.76,-478.04 548,-469.2 559.7,-463.53 572.75,-459.02 585.57,-455.47"/>
<polygon fill="#757575" stroke="#757575" points="586.51,-458.84 595.31,-452.94 584.75,-452.07 586.51,-458.84"/>
</g>
<!-- lib/functional/result.ts -->
<g id="node18" class="node">
<title>lib/functional/result.ts</title>
<path fill="none" stroke="#cfffac" d="M1662.33,-836.7C1662.33,-836.7 1530.67,-836.7 1530.67,-836.7 1526.83,-836.7 1523,-832.86 1523,-829.03 1523,-829.03 1523,-821.36 1523,-821.36 1523,-817.53 1526.83,-813.7 1530.67,-813.7 1530.67,-813.7 1662.33,-813.7 1662.33,-813.7 1666.17,-813.7 1670,-817.53 1670,-821.36 1670,-821.36 1670,-829.03 1670,-829.03 1670,-832.86 1666.17,-836.7 1662.33,-836.7"/>
<text text-anchor="middle" x="1596.5" y="-821.5" font-family="Arial" font-size="14.00" fill="#cfffac">lib/functional/result.ts</text>
</g>
<!-- lib/functional/mod.ts&#45;&gt;lib/functional/result.ts -->
<g id="edge30" class="edge">
<title>lib/functional/mod.ts&#45;&gt;lib/functional/result.ts</title>
<path fill="none" stroke="#757575" d="M1247.69,-746.33C1310.18,-747.12 1404.15,-752.3 1483,-773.2 1513.03,-781.16 1544.97,-796.68 1567.11,-808.7"/>
<polygon fill="#757575" stroke="#757575" points="1565.53,-811.82 1575.97,-813.6 1568.92,-805.7 1565.53,-811.82"/>
</g>
<!-- lib/numbers/nat.ts -->
<g id="node25" class="node">
<title>lib/numbers/nat.ts</title>
<path fill="none" stroke="#c6c5fe" d="M1233.33,-317.7C1233.33,-317.7 1121.67,-317.7 1121.67,-317.7 1117.83,-317.7 1114,-313.86 1114,-310.03 1114,-310.03 1114,-302.36 1114,-302.36 1114,-298.53 1117.83,-294.7 1121.67,-294.7 1121.67,-294.7 1233.33,-294.7 1233.33,-294.7 1237.17,-294.7 1241,-298.53 1241,-302.36 1241,-302.36 1241,-310.03 1241,-310.03 1241,-313.86 1237.17,-317.7 1233.33,-317.7"/>
<text text-anchor="middle" x="1177.5" y="-302.5" font-family="Arial" font-size="14.00" fill="#c6c5fe">lib/numbers/nat.ts</text>
</g>
<!-- lib/numbers/mod.ts&#45;&gt;lib/numbers/nat.ts -->
<g id="edge33" class="edge">
<title>lib/numbers/mod.ts&#45;&gt;lib/numbers/nat.ts</title>
<path fill="none" stroke="#757575" d="M982.54,-475.81C1000.49,-472.81 1018.84,-466.74 1033,-455.2 1066.39,-427.98 1040.44,-397.45 1069,-365.2 1086.21,-345.76 1111.42,-331.45 1133.1,-321.8"/>
<polygon fill="#757575" stroke="#757575" points="1134.63,-324.95 1142.46,-317.81 1131.88,-318.51 1134.63,-324.95"/>
</g>
<!-- lib/numbers/u16.ts -->
<g id="node26" class="node">
<title>lib/numbers/u16.ts</title>
<path fill="none" stroke="#c6c5fe" d="M1235.33,-438.7C1235.33,-438.7 1119.67,-438.7 1119.67,-438.7 1115.83,-438.7 1112,-434.86 1112,-431.03 1112,-431.03 1112,-423.36 1112,-423.36 1112,-419.53 1115.83,-415.7 1119.67,-415.7 1119.67,-415.7 1235.33,-415.7 1235.33,-415.7 1239.17,-415.7 1243,-419.53 1243,-423.36 1243,-423.36 1243,-431.03 1243,-431.03 1243,-434.86 1239.17,-438.7 1235.33,-438.7"/>
<text text-anchor="middle" x="1177.5" y="-423.5" font-family="Arial" font-size="14.00" fill="#c6c5fe">lib/numbers/u16.ts</text>
</g>
<!-- lib/numbers/mod.ts&#45;&gt;lib/numbers/u16.ts -->
<g id="edge34" class="edge">
<title>lib/numbers/mod.ts&#45;&gt;lib/numbers/u16.ts</title>
<path fill="none" stroke="#757575" d="M982.6,-464.73C999.1,-461.76 1016.71,-458.47 1033,-455.2 1049.07,-451.97 1052.94,-450.47 1069,-447.2 1079.86,-444.98 1091.36,-442.73 1102.64,-440.59"/>
<polygon fill="#757575" stroke="#757575" points="1103.3,-444.03 1112.48,-438.73 1102,-437.15 1103.3,-444.03"/>
</g>
<!-- lib/numbers/u256.ts -->
<g id="node27" class="node">
<title>lib/numbers/u256.ts</title>
<path fill="none" stroke="#c6c5fe" d="M1239.33,-397.7C1239.33,-397.7 1115.67,-397.7 1115.67,-397.7 1111.83,-397.7 1108,-393.86 1108,-390.03 1108,-390.03 1108,-382.36 1108,-382.36 1108,-378.53 1111.83,-374.7 1115.67,-374.7 1115.67,-374.7 1239.33,-374.7 1239.33,-374.7 1243.17,-374.7 1247,-378.53 1247,-382.36 1247,-382.36 1247,-390.03 1247,-390.03 1247,-393.86 1243.17,-397.7 1239.33,-397.7"/>
<text text-anchor="middle" x="1177.5" y="-382.5" font-family="Arial" font-size="14.00" fill="#c6c5fe">lib/numbers/u256.ts</text>
</g>
<!-- lib/numbers/mod.ts&#45;&gt;lib/numbers/u256.ts -->
<g id="edge35" class="edge">
<title>lib/numbers/mod.ts&#45;&gt;lib/numbers/u256.ts</title>
<path fill="none" stroke="#757575" d="M982.64,-473.08C1000,-469.97 1018.03,-464.53 1033,-455.2 1055.93,-440.9 1046.11,-420.56 1069,-406.2 1077.83,-400.65 1087.83,-396.57 1098.08,-393.57"/>
<polygon fill="#757575" stroke="#757575" points="1099.14,-396.91 1107.95,-391.01 1097.39,-390.13 1099.14,-396.91"/>
</g>
<!-- lib/numbers/u64.ts -->
<g id="node28" class="node">
<title>lib/numbers/u64.ts</title>
<path fill="none" stroke="#c6c5fe" d="M1235.33,-520.7C1235.33,-520.7 1119.67,-520.7 1119.67,-520.7 1115.83,-520.7 1112,-516.86 1112,-513.03 1112,-513.03 1112,-505.36 1112,-505.36 1112,-501.53 1115.83,-497.7 1119.67,-497.7 1119.67,-497.7 1235.33,-497.7 1235.33,-497.7 1239.17,-497.7 1243,-501.53 1243,-505.36 1243,-505.36 1243,-513.03 1243,-513.03 1243,-516.86 1239.17,-520.7 1235.33,-520.7"/>
<text text-anchor="middle" x="1177.5" y="-505.5" font-family="Arial" font-size="14.00" fill="#c6c5fe">lib/numbers/u64.ts</text>
</g>
<!-- lib/numbers/mod.ts&#45;&gt;lib/numbers/u64.ts -->
<g id="edge36" class="edge">
<title>lib/numbers/mod.ts&#45;&gt;lib/numbers/u64.ts</title>
<path fill="none" stroke="#757575" d="M982.75,-484.65C1018.99,-489.24 1063.91,-494.93 1101.37,-499.68"/>
<polygon fill="#757575" stroke="#757575" points="1101.37,-503.21 1111.73,-500.99 1102.25,-496.26 1101.37,-503.21"/>
</g>
<!-- lib/numbers/u8.ts -->
<g id="node29" class="node">
<title>lib/numbers/u8.ts</title>
<path fill="none" stroke="#c6c5fe" d="M1231.33,-479.7C1231.33,-479.7 1123.67,-479.7 1123.67,-479.7 1119.83,-479.7 1116,-475.86 1116,-472.03 1116,-472.03 1116,-464.36 1116,-464.36 1116,-460.53 1119.83,-456.7 1123.67,-456.7 1123.67,-456.7 1231.33,-456.7 1231.33,-456.7 1235.17,-456.7 1239,-460.53 1239,-464.36 1239,-464.36 1239,-472.03 1239,-472.03 1239,-475.86 1235.17,-479.7 1231.33,-479.7"/>
<text text-anchor="middle" x="1177.5" y="-464.5" font-family="Arial" font-size="14.00" fill="#c6c5fe">lib/numbers/u8.ts</text>
</g>
<!-- lib/numbers/mod.ts&#45;&gt;lib/numbers/u8.ts -->
<g id="edge37" class="edge">
<title>lib/numbers/mod.ts&#45;&gt;lib/numbers/u8.ts</title>
<path fill="none" stroke="#757575" d="M982.75,-474.15C1020.39,-472.99 1067.39,-471.55 1105.68,-470.37"/>
<polygon fill="#757575" stroke="#757575" points="1105.83,-473.87 1115.72,-470.06 1105.62,-466.87 1105.83,-473.87"/>
</g>
<!-- types/address.ts&#45;&gt;lib/numbers/mod.ts -->
<g id="edge58" class="edge">
<title>types/address.ts&#45;&gt;lib/numbers/mod.ts</title>
<path fill="none" stroke="#757575" d="M713.51,-450.6C749.94,-455.25 797.34,-461.3 836.91,-466.36"/>
<polygon fill="#757575" stroke="#757575" points="836.69,-469.86 847.05,-467.65 837.57,-462.91 836.69,-469.86"/>
</g>
<!-- types/address.ts&#45;&gt;lib/tuple.ts -->
<g id="edge59" class="edge">
<title>types/address.ts&#45;&gt;lib/tuple.ts</title>
<path fill="none" stroke="#757575" d="M713.51,-441.4C758.89,-440 821.31,-438.07 864.39,-436.73"/>
<polygon fill="#757575" stroke="#757575" points="864.74,-440.22 874.63,-436.42 864.53,-433.23 864.74,-440.22"/>
</g>
<!-- cli.ts -->
<g id="node6" class="node">
<title>cli.ts</title>
<path fill="none" stroke="#c6c5fe" d="M59.33,-802.7C59.33,-802.7 20.67,-802.7 20.67,-802.7 16.83,-802.7 13,-798.86 13,-795.03 13,-795.03 13,-787.36 13,-787.36 13,-783.53 16.83,-779.7 20.67,-779.7 20.67,-779.7 59.33,-779.7 59.33,-779.7 63.17,-779.7 67,-783.53 67,-787.36 67,-787.36 67,-795.03 67,-795.03 67,-798.86 63.17,-802.7 59.33,-802.7"/>
<text text-anchor="middle" x="40" y="-787.5" font-family="Arial" font-size="14.00" fill="#c6c5fe">cli.ts</text>
</g>
<!-- config.ts -->
<g id="node7" class="node">
<title>config.ts</title>
<path fill="none" stroke="#c6c5fe" d="M300.33,-802.7C300.33,-802.7 246.67,-802.7 246.67,-802.7 242.83,-802.7 239,-798.86 239,-795.03 239,-795.03 239,-787.36 239,-787.36 239,-783.53 242.83,-779.7 246.67,-779.7 246.67,-779.7 300.33,-779.7 300.33,-779.7 304.17,-779.7 308,-783.53 308,-787.36 308,-787.36 308,-795.03 308,-795.03 308,-798.86 304.17,-802.7 300.33,-802.7"/>
<text text-anchor="middle" x="273.5" y="-787.5" font-family="Arial" font-size="14.00" fill="#c6c5fe">config.ts</text>
</g>
<!-- cli.ts&#45;&gt;config.ts -->
<g id="edge5" class="edge">
<title>cli.ts&#45;&gt;config.ts</title>
<path fill="none" stroke="#757575" d="M67.11,-791.2C106.32,-791.2 180.92,-791.2 228.6,-791.2"/>
<polygon fill="#757575" stroke="#757575" points="228.64,-794.7 238.64,-791.2 228.64,-787.7 228.64,-794.7"/>
</g>
<!-- lib/json.ts -->
<g id="node8" class="node">
<title>lib/json.ts</title>
<path fill="none" stroke="#cfffac" d="M1626.33,-1049.7C1626.33,-1049.7 1566.67,-1049.7 1566.67,-1049.7 1562.83,-1049.7 1559,-1045.86 1559,-1042.03 1559,-1042.03 1559,-1034.36 1559,-1034.36 1559,-1030.53 1562.83,-1026.7 1566.67,-1026.7 1566.67,-1026.7 1626.33,-1026.7 1626.33,-1026.7 1630.17,-1026.7 1634,-1030.53 1634,-1034.36 1634,-1034.36 1634,-1042.03 1634,-1042.03 1634,-1045.86 1630.17,-1049.7 1626.33,-1049.7"/>
<text text-anchor="middle" x="1596.5" y="-1034.5" font-family="Arial" font-size="14.00" fill="#cfffac">lib/json.ts</text>
</g>
<!-- cli.ts&#45;&gt;lib/json.ts -->
<g id="edge6" class="edge">
<title>cli.ts&#45;&gt;lib/json.ts</title>
<path fill="none" stroke="#757575" d="M67.09,-802.7C71.69,-805.41 76.22,-808.59 80,-812.2 200.32,-927.08 106.15,-1133.2 272.5,-1133.2 272.5,-1133.2 272.5,-1133.2 1178.5,-1133.2 1315.18,-1133.2 1351.9,-1128.84 1483,-1090.2 1512.44,-1081.52 1543.99,-1066.37 1566.17,-1054.66"/>
<polygon fill="#757575" stroke="#757575" points="1567.91,-1057.69 1575.07,-1049.87 1564.6,-1051.52 1567.91,-1057.69"/>
</g>
<!-- ubilog.ts -->
<g id="node9" class="node">
<title>ubilog.ts</title>
<path fill="none" stroke="#c6c5fe" d="M177.33,-414.7C177.33,-414.7 123.67,-414.7 123.67,-414.7 119.83,-414.7 116,-410.86 116,-407.03 116,-407.03 116,-399.36 116,-399.36 116,-395.53 119.83,-391.7 123.67,-391.7 123.67,-391.7 177.33,-391.7 177.33,-391.7 181.17,-391.7 185,-395.53 185,-399.36 185,-399.36 185,-407.03 185,-407.03 185,-410.86 181.17,-414.7 177.33,-414.7"/>
<text text-anchor="middle" x="150.5" y="-399.5" font-family="Arial" font-size="14.00" fill="#c6c5fe">ubilog.ts</text>
</g>
<!-- cli.ts&#45;&gt;ubilog.ts -->
<g id="edge7" class="edge">
<title>cli.ts&#45;&gt;ubilog.ts</title>
<path fill="none" stroke="#757575" d="M44.25,-779.58C59.44,-725.25 123.6,-495.8 143.56,-424.46"/>
<polygon fill="#757575" stroke="#757575" points="146.94,-425.34 146.27,-414.76 140.2,-423.45 146.94,-425.34"/>
</g>
<!-- config.ts&#45;&gt;lib/numbers/mod.ts -->
<g id="edge11" class="edge">
<title>config.ts&#45;&gt;lib/numbers/mod.ts</title>
<path fill="none" stroke="#757575" d="M308.08,-792.99C392.84,-795.79 618.75,-792.26 761,-687.2 832.28,-634.54 884.05,-538.96 904.44,-496.95"/>
<polygon fill="#757575" stroke="#757575" points="907.7,-498.24 908.83,-487.7 901.38,-495.23 907.7,-498.24"/>
</g>
<!-- config.ts&#45;&gt;lib/json.ts -->
<g id="edge10" class="edge">
<title>config.ts&#45;&gt;lib/json.ts</title>
<path fill="none" stroke="#757575" d="M281.04,-802.74C313.44,-858.27 462.87,-1095.2 653.5,-1095.2 653.5,-1095.2 653.5,-1095.2 1178.5,-1095.2 1314.53,-1095.2 1348.8,-1086.45 1483,-1064.2 1504.91,-1060.56 1528.92,-1055.21 1549.12,-1050.3"/>
<polygon fill="#757575" stroke="#757575" points="1550.13,-1053.65 1559,-1047.86 1548.45,-1046.86 1550.13,-1053.65"/>
</g>
<!-- lib/confignator/mod.ts -->
<g id="node10" class="node">
<title>lib/confignator/mod.ts</title>
<path fill="none" stroke="#c6c5fe" d="M504.33,-892.7C504.33,-892.7 369.67,-892.7 369.67,-892.7 365.83,-892.7 362,-888.86 362,-885.03 362,-885.03 362,-877.36 362,-877.36 362,-873.53 365.83,-869.7 369.67,-869.7 369.67,-869.7 504.33,-869.7 504.33,-869.7 508.17,-869.7 512,-873.53 512,-877.36 512,-877.36 512,-885.03 512,-885.03 512,-888.86 508.17,-892.7 504.33,-892.7"/>
<text text-anchor="middle" x="437" y="-877.5" font-family="Arial" font-size="14.00" fill="#c6c5fe">lib/confignator/mod.ts</text>
</g>
<!-- config.ts&#45;&gt;lib/confignator/mod.ts -->
<g id="edge8" class="edge">
<title>config.ts&#45;&gt;lib/confignator/mod.ts</title>
<path fill="none" stroke="#757575" d="M295.28,-802.78C323.51,-818.51 374.12,-846.71 406.33,-864.67"/>
<polygon fill="#757575" stroke="#757575" points="404.86,-867.85 415.3,-869.66 408.27,-861.73 404.86,-867.85"/>
</g>
<!-- lib/files.ts -->
<g id="node11" class="node">
<title>lib/files.ts</title>
<path fill="none" stroke="#cfffac" d="M466.33,-762.7C466.33,-762.7 407.67,-762.7 407.67,-762.7 403.83,-762.7 400,-758.86 400,-755.03 400,-755.03 400,-747.36 400,-747.36 400,-743.53 403.83,-739.7 407.67,-739.7 407.67,-739.7 466.33,-739.7 466.33,-739.7 470.17,-739.7 474,-743.53 474,-747.36 474,-747.36 474,-755.03 474,-755.03 474,-758.86 470.17,-762.7 466.33,-762.7"/>
<text text-anchor="middle" x="437" y="-747.5" font-family="Arial" font-size="14.00" fill="#cfffac">lib/files.ts</text>
</g>
<!-- config.ts&#45;&gt;lib/files.ts -->
<g id="edge9" class="edge">
<title>config.ts&#45;&gt;lib/files.ts</title>
<path fill="none" stroke="#757575" d="M308.36,-782.81C332.04,-776.95 363.95,-769.04 389.94,-762.6"/>
<polygon fill="#757575" stroke="#757575" points="391.08,-765.93 399.95,-760.13 389.4,-759.13 391.08,-765.93"/>
</g>
<!-- ubilog.ts&#45;&gt;address.ts -->
<g id="edge68" class="edge">
<title>ubilog.ts&#45;&gt;address.ts</title>
<path fill="none" stroke="#757575" d="M158.71,-414.75C178.63,-446.69 234.62,-536.46 259.87,-576.94"/>
<polygon fill="#757575" stroke="#757575" points="256.92,-578.82 265.18,-585.46 262.86,-575.12 256.92,-578.82"/>
</g>
<!-- ubilog.ts&#45;&gt;lib/numbers/mod.ts -->
<g id="edge75" class="edge">
<title>ubilog.ts&#45;&gt;lib/numbers/mod.ts</title>
<path fill="none" stroke="#757575" d="M151.19,-414.92C150.93,-451.75 155.64,-565.7 221,-617.2 409.79,-765.94 539.22,-680.81 761,-588.2 814.91,-565.68 867.61,-520.55 894.86,-494.99"/>
<polygon fill="#757575" stroke="#757575" points="897.34,-497.46 902.17,-488.03 892.51,-492.39 897.34,-497.46"/>
</g>
<!-- ubilog.ts&#45;&gt;types/address.ts -->
<g id="edge77" class="edge">
<title>ubilog.ts&#45;&gt;types/address.ts</title>
<path fill="none" stroke="#757575" d="M170.62,-414.73C184.22,-422.46 203.18,-432.27 221,-438.2 344.18,-479.15 382.51,-472.3 512,-463.2 535.93,-461.51 561.97,-458.25 585.11,-454.84"/>
<polygon fill="#757575" stroke="#757575" points="585.81,-458.27 595.18,-453.32 584.77,-451.35 585.81,-458.27"/>
</g>
<!-- ubilog.ts&#45;&gt;config.ts -->
<g id="edge69" class="edge">
<title>ubilog.ts&#45;&gt;config.ts</title>
<path fill="none" stroke="#757575" d="M151.3,-414.73C151.01,-460.11 154.64,-629.6 221,-745.2 227.28,-756.13 237.09,-765.85 246.48,-773.5"/>
<polygon fill="#757575" stroke="#757575" points="244.45,-776.36 254.51,-779.67 248.71,-770.8 244.45,-776.36"/>
</g>
<!-- ubilog.ts&#45;&gt;lib/files.ts -->
<g id="edge73" class="edge">
<title>ubilog.ts&#45;&gt;lib/files.ts</title>
<path fill="none" stroke="#757575" d="M152.8,-414.74C158.42,-462.78 182.15,-646.39 221,-687.2 265.12,-733.55 341.18,-746.76 390,-750.29"/>
<polygon fill="#757575" stroke="#757575" points="389.78,-753.78 399.98,-750.9 390.21,-746.79 389.78,-753.78"/>
</g>
<!-- constants.ts -->
<g id="node12" class="node">
<title>constants.ts</title>
<path fill="none" stroke="#cfffac" d="M474.83,-184.7C474.83,-184.7 399.17,-184.7 399.17,-184.7 395.33,-184.7 391.5,-180.86 391.5,-177.03 391.5,-177.03 391.5,-169.36 391.5,-169.36 391.5,-165.53 395.33,-161.7 399.17,-161.7 399.17,-161.7 474.83,-161.7 474.83,-161.7 478.67,-161.7 482.5,-165.53 482.5,-169.36 482.5,-169.36 482.5,-177.03 482.5,-177.03 482.5,-180.86 478.67,-184.7 474.83,-184.7"/>
<text text-anchor="middle" x="437" y="-169.5" font-family="Arial" font-size="14.00" fill="#cfffac">constants.ts</text>
</g>
<!-- ubilog.ts&#45;&gt;constants.ts -->
<g id="edge70" class="edge">
<title>ubilog.ts&#45;&gt;constants.ts</title>
<path fill="none" stroke="#757575" d="M154.73,-391.56C162.32,-366.12 183.53,-304.91 221,-268.2 265.63,-224.47 333.78,-199.06 381.35,-185.71"/>
<polygon fill="#757575" stroke="#757575" points="382.44,-189.04 391.18,-183.04 380.61,-182.28 382.44,-189.04"/>
</g>
<!-- keccak256.ts -->
<g id="node13" class="node">
<title>keccak256.ts</title>
<path fill="none" stroke="#cfffac" d="M314.83,-374.7C314.83,-374.7 232.17,-374.7 232.17,-374.7 228.33,-374.7 224.5,-370.86 224.5,-367.03 224.5,-367.03 224.5,-359.36 224.5,-359.36 224.5,-355.53 228.33,-351.7 232.17,-351.7 232.17,-351.7 314.83,-351.7 314.83,-351.7 318.67,-351.7 322.5,-355.53 322.5,-359.36 322.5,-359.36 322.5,-367.03 322.5,-367.03 322.5,-370.86 318.67,-374.7 314.83,-374.7"/>
<text text-anchor="middle" x="273.5" y="-359.5" font-family="Arial" font-size="14.00" fill="#cfffac">keccak256.ts</text>
</g>
<!-- ubilog.ts&#45;&gt;keccak256.ts -->
<g id="edge71" class="edge">
<title>ubilog.ts&#45;&gt;keccak256.ts</title>
<path fill="none" stroke="#757575" d="M185.21,-392.05C198.5,-387.66 213.96,-382.55 228.14,-377.86"/>
<polygon fill="#757575" stroke="#757575" points="229.32,-381.16 237.71,-374.7 227.12,-374.51 229.32,-381.16"/>
</g>
<!-- lib/bit_str.ts -->
<g id="node14" class="node">
<title>lib/bit_str.ts</title>
<path fill="none" stroke="#c6c5fe" d="M950.83,-270.7C950.83,-270.7 879.17,-270.7 879.17,-270.7 875.33,-270.7 871.5,-266.86 871.5,-263.03 871.5,-263.03 871.5,-255.36 871.5,-255.36 871.5,-251.53 875.33,-247.7 879.17,-247.7 879.17,-247.7 950.83,-247.7 950.83,-247.7 954.67,-247.7 958.5,-251.53 958.5,-255.36 958.5,-255.36 958.5,-263.03 958.5,-263.03 958.5,-266.86 954.67,-270.7 950.83,-270.7"/>
<text text-anchor="middle" x="915" y="-255.5" font-family="Arial" font-size="14.00" fill="#c6c5fe">lib/bit_str.ts</text>
</g>
<!-- ubilog.ts&#45;&gt;lib/bit_str.ts -->
<g id="edge72" class="edge">
<title>ubilog.ts&#45;&gt;lib/bit_str.ts</title>
<path fill="none" stroke="#757575" d="M152.56,-391.59C157.34,-341.48 178.64,-144.4 221,-102.2 266.52,-56.84 298.14,-77.35 362,-70.2 428.25,-62.77 447.06,-55.11 512,-70.2 649.46,-102.14 668.52,-151.8 797,-210.2 822.96,-222 852.6,-234.4 875.55,-243.77"/>
<polygon fill="#757575" stroke="#757575" points="874.36,-247.07 884.94,-247.59 877,-240.58 874.36,-247.07"/>
</g>
<!-- lib/heap.ts -->
<g id="node22" class="node">
<title>lib/heap.ts</title>
<path fill="none" stroke="#c6c5fe" d="M305.83,-191.7C305.83,-191.7 241.17,-191.7 241.17,-191.7 237.33,-191.7 233.5,-187.86 233.5,-184.03 233.5,-184.03 233.5,-176.36 233.5,-176.36 233.5,-172.53 237.33,-168.7 241.17,-168.7 241.17,-168.7 305.83,-168.7 305.83,-168.7 309.67,-168.7 313.5,-172.53 313.5,-176.36 313.5,-176.36 313.5,-184.03 313.5,-184.03 313.5,-187.86 309.67,-191.7 305.83,-191.7"/>
<text text-anchor="middle" x="273.5" y="-176.5" font-family="Arial" font-size="14.00" fill="#c6c5fe">lib/heap.ts</text>
</g>
<!-- ubilog.ts&#45;&gt;lib/heap.ts -->
<g id="edge74" class="edge">
<title>ubilog.ts&#45;&gt;lib/heap.ts</title>
<path fill="none" stroke="#757575" d="M154.02,-391.44C160.86,-361.51 181.9,-280.84 221,-225.2 228.11,-215.08 237.95,-205.75 247.13,-198.24"/>
<polygon fill="#757575" stroke="#757575" points="249.55,-200.79 255.28,-191.88 245.24,-195.27 249.55,-200.79"/>
</g>
<!-- serialization.ts -->
<g id="node31" class="node">
<title>serialization.ts</title>
<path fill="none" stroke="#c6c5fe" d="M318.33,-300.7C318.33,-300.7 228.67,-300.7 228.67,-300.7 224.83,-300.7 221,-296.86 221,-293.03 221,-293.03 221,-285.36 221,-285.36 221,-281.53 224.83,-277.7 228.67,-277.7 228.67,-277.7 318.33,-277.7 318.33,-277.7 322.17,-277.7 326,-281.53 326,-285.36 326,-285.36 326,-293.03 326,-293.03 326,-296.86 322.17,-300.7 318.33,-300.7"/>
<text text-anchor="middle" x="273.5" y="-285.5" font-family="Arial" font-size="14.00" fill="#c6c5fe">serialization.ts</text>
</g>
<!-- ubilog.ts&#45;&gt;serialization.ts -->
<g id="edge76" class="edge">
<title>ubilog.ts&#45;&gt;serialization.ts</title>
<path fill="none" stroke="#757575" d="M163.99,-391.43C185.02,-371.61 227.66,-331.45 252.77,-307.79"/>
<polygon fill="#757575" stroke="#757575" points="255.38,-310.14 260.25,-300.73 250.58,-305.04 255.38,-310.14"/>
</g>
<!-- types/blockchain.ts -->
<g id="node32" class="node">
<title>types/blockchain.ts</title>
<path fill="none" stroke="#c6c5fe" d="M714.33,-302.7C714.33,-302.7 594.67,-302.7 594.67,-302.7 590.83,-302.7 587,-298.86 587,-295.03 587,-295.03 587,-287.36 587,-287.36 587,-283.53 590.83,-279.7 594.67,-279.7 594.67,-279.7 714.33,-279.7 714.33,-279.7 718.17,-279.7 722,-283.53 722,-287.36 722,-287.36 722,-295.03 722,-295.03 722,-298.86 718.17,-302.7 714.33,-302.7"/>
<text text-anchor="middle" x="654.5" y="-287.5" font-family="Arial" font-size="14.00" fill="#c6c5fe">types/blockchain.ts</text>
</g>
<!-- ubilog.ts&#45;&gt;types/blockchain.ts -->
<g id="edge78" class="edge">
<title>ubilog.ts&#45;&gt;types/blockchain.ts</title>
<path fill="none" stroke="#757575" d="M185.2,-400.94C220.52,-398.2 277.53,-392.72 326,-383.2 429.14,-362.93 547.16,-326.38 609.52,-305.98"/>
<polygon fill="#757575" stroke="#757575" points="610.64,-309.3 619.04,-302.85 608.45,-302.65 610.64,-309.3"/>
</g>
<!-- types/hash.ts -->
<g id="node33" class="node">
<title>types/hash.ts</title>
<path fill="none" stroke="#c6c5fe" d="M956.83,-201.7C956.83,-201.7 873.17,-201.7 873.17,-201.7 869.33,-201.7 865.5,-197.86 865.5,-194.03 865.5,-194.03 865.5,-186.36 865.5,-186.36 865.5,-182.53 869.33,-178.7 873.17,-178.7 873.17,-178.7 956.83,-178.7 956.83,-178.7 960.67,-178.7 964.5,-182.53 964.5,-186.36 964.5,-186.36 964.5,-194.03 964.5,-194.03 964.5,-197.86 960.67,-201.7 956.83,-201.7"/>
<text text-anchor="middle" x="915" y="-186.5" font-family="Arial" font-size="14.00" fill="#c6c5fe">types/hash.ts</text>
</g>
<!-- ubilog.ts&#45;&gt;types/hash.ts -->
<g id="edge79" class="edge">
<title>ubilog.ts&#45;&gt;types/hash.ts</title>
<path fill="none" stroke="#757575" d="M152.1,-391.58C155.13,-337.63 170.7,-112.18 221,-68.2 423.21,108.63 789.32,-108.31 888.59,-173.04"/>
<polygon fill="#757575" stroke="#757575" points="886.82,-176.06 897.09,-178.64 890.67,-170.22 886.82,-176.06"/>
</g>
<!-- types/network.ts -->
<g id="node34" class="node">
<title>types/network.ts</title>
<path fill="none" stroke="#c6c5fe" d="M488.33,-454.7C488.33,-454.7 385.67,-454.7 385.67,-454.7 381.83,-454.7 378,-450.86 378,-447.03 378,-447.03 378,-439.36 378,-439.36 378,-435.53 381.83,-431.7 385.67,-431.7 385.67,-431.7 488.33,-431.7 488.33,-431.7 492.17,-431.7 496,-435.53 496,-439.36 496,-439.36 496,-447.03 496,-447.03 496,-450.86 492.17,-454.7 488.33,-454.7"/>
<text text-anchor="middle" x="437" y="-439.5" font-family="Arial" font-size="14.00" fill="#c6c5fe">types/network.ts</text>
</g>
<!-- ubilog.ts&#45;&gt;types/network.ts -->
<g id="edge80" class="edge">
<title>ubilog.ts&#45;&gt;types/network.ts</title>
<path fill="none" stroke="#757575" d="M185.34,-410.57C196.64,-412.88 209.33,-415.32 221,-417.2 269.87,-425.06 325.33,-431.71 367.68,-436.32"/>
<polygon fill="#757575" stroke="#757575" points="367.56,-439.83 377.88,-437.42 368.31,-432.87 367.56,-439.83"/>
</g>
<!-- util.ts -->
<g id="node35" class="node">
<title>util.ts</title>
<path fill="none" stroke="#cfffac" d="M456.33,-102.7C456.33,-102.7 417.67,-102.7 417.67,-102.7 413.83,-102.7 410,-98.86 410,-95.03 410,-95.03 410,-87.36 410,-87.36 410,-83.53 413.83,-79.7 417.67,-79.7 417.67,-79.7 456.33,-79.7 456.33,-79.7 460.17,-79.7 464,-83.53 464,-87.36 464,-87.36 464,-95.03 464,-95.03 464,-98.86 460.17,-102.7 456.33,-102.7"/>
<text text-anchor="middle" x="437" y="-87.5" font-family="Arial" font-size="14.00" fill="#cfffac">util.ts</text>
</g>
<!-- ubilog.ts&#45;&gt;util.ts -->
<g id="edge81" class="edge">
<title>ubilog.ts&#45;&gt;util.ts</title>
<path fill="none" stroke="#757575" d="M151.26,-391.44C151.1,-352.7 155.91,-227.67 221,-159.2 268.27,-109.47 351.57,-95.96 399.43,-92.38"/>
<polygon fill="#757575" stroke="#757575" points="399.89,-95.86 409.64,-91.73 399.44,-88.88 399.89,-95.86"/>
</g>
<!-- lib/confignator/mod.ts&#45;&gt;lib/json.ts -->
<g id="edge15" class="edge">
<title>lib/confignator/mod.ts&#45;&gt;lib/json.ts</title>
<path fill="none" stroke="#757575" d="M455.29,-892.74C515.66,-931.9 723.69,-1057.2 914,-1057.2 914,-1057.2 914,-1057.2 1178.5,-1057.2 1312.95,-1057.2 1471.53,-1047.22 1548.66,-1041.72"/>
<polygon fill="#757575" stroke="#757575" points="1549.27,-1045.19 1558.99,-1040.98 1548.76,-1038.21 1549.27,-1045.19"/>
</g>
<!-- lib/confignator/types.ts -->
<g id="node16" class="node">
<title>lib/confignator/types.ts</title>
<path fill="none" stroke="#c6c5fe" d="M1472.83,-912.7C1472.83,-912.7 1332.17,-912.7 1332.17,-912.7 1328.33,-912.7 1324.5,-908.86 1324.5,-905.03 1324.5,-905.03 1324.5,-897.36 1324.5,-897.36 1324.5,-893.53 1328.33,-889.7 1332.17,-889.7 1332.17,-889.7 1472.83,-889.7 1472.83,-889.7 1476.67,-889.7 1480.5,-893.53 1480.5,-897.36 1480.5,-897.36 1480.5,-905.03 1480.5,-905.03 1480.5,-908.86 1476.67,-912.7 1472.83,-912.7"/>
<text text-anchor="middle" x="1402.5" y="-897.5" font-family="Arial" font-size="14.00" fill="#c6c5fe">lib/confignator/types.ts</text>
</g>
<!-- lib/confignator/mod.ts&#45;&gt;lib/confignator/types.ts -->
<g id="edge13" class="edge">
<title>lib/confignator/mod.ts&#45;&gt;lib/confignator/types.ts</title>
<path fill="none" stroke="#757575" d="M512.23,-879.91C624.83,-878.24 845.58,-876.11 1033,-881.2 1129.19,-883.81 1239.34,-890.24 1313.97,-895.11"/>
<polygon fill="#757575" stroke="#757575" points="1314.06,-898.62 1324.26,-895.78 1314.52,-891.64 1314.06,-898.62"/>
</g>
<!-- lib/confignator/validators/mod.ts -->
<g id="node17" class="node">
<title>lib/confignator/validators/mod.ts</title>
<path fill="none" stroke="#c6c5fe" d="M753.33,-932.7C753.33,-932.7 555.67,-932.7 555.67,-932.7 551.83,-932.7 548,-928.86 548,-925.03 548,-925.03 548,-917.36 548,-917.36 548,-913.53 551.83,-909.7 555.67,-909.7 555.67,-909.7 753.33,-909.7 753.33,-909.7 757.17,-909.7 761,-913.53 761,-917.36 761,-917.36 761,-925.03 761,-925.03 761,-928.86 757.17,-932.7 753.33,-932.7"/>
<text text-anchor="middle" x="654.5" y="-917.5" font-family="Arial" font-size="14.00" fill="#c6c5fe">lib/confignator/validators/mod.ts</text>
</g>
<!-- lib/confignator/mod.ts&#45;&gt;lib/confignator/validators/mod.ts -->
<g id="edge14" class="edge">
<title>lib/confignator/mod.ts&#45;&gt;lib/confignator/validators/mod.ts</title>
<path fill="none" stroke="#757575" d="M500.04,-892.71C525.51,-897.44 555.16,-902.94 581.57,-907.85"/>
<polygon fill="#757575" stroke="#757575" points="581.05,-911.31 591.52,-909.69 582.33,-904.43 581.05,-911.31"/>
</g>
<!-- lib/tag_type.ts -->
<g id="node15" class="node">
<title>lib/tag_type.ts</title>
<path fill="none" stroke="#cfffac" d="M1446.33,-377.7C1446.33,-377.7 1358.67,-377.7 1358.67,-377.7 1354.83,-377.7 1351,-373.86 1351,-370.03 1351,-370.03 1351,-362.36 1351,-362.36 1351,-358.53 1354.83,-354.7 1358.67,-354.7 1358.67,-354.7 1446.33,-354.7 1446.33,-354.7 1450.17,-354.7 1454,-358.53 1454,-362.36 1454,-362.36 1454,-370.03 1454,-370.03 1454,-373.86 1450.17,-377.7 1446.33,-377.7"/>
<text text-anchor="middle" x="1402.5" y="-362.5" font-family="Arial" font-size="14.00" fill="#cfffac">lib/tag_type.ts</text>
</g>
<!-- lib/bit_str.ts&#45;&gt;lib/tag_type.ts -->
<g id="edge12" class="edge">
<title>lib/bit_str.ts&#45;&gt;lib/tag_type.ts</title>
<path fill="none" stroke="#757575" d="M958.54,-254.98C1028.95,-249.57 1173.12,-245.15 1286,-285.2 1323.87,-298.63 1360.63,-328.11 1382.15,-347.55"/>
<polygon fill="#757575" stroke="#757575" points="1379.91,-350.24 1389.63,-354.46 1384.66,-345.1 1379.91,-350.24"/>
</g>
<!-- lib/confignator/types.ts&#45;&gt;lib/json.ts -->
<g id="edge17" class="edge">
<title>lib/confignator/types.ts&#45;&gt;lib/json.ts</title>
<path fill="none" stroke="#757575" d="M1419.87,-912.88C1453.59,-936.94 1530.98,-992.16 1570.81,-1020.58"/>
<polygon fill="#757575" stroke="#757575" points="1569,-1023.59 1579.17,-1026.55 1573.06,-1017.89 1569,-1023.59"/>
</g>
<!-- lib/confignator/types.ts&#45;&gt;lib/functional/result.ts -->
<g id="edge16" class="edge">
<title>lib/confignator/types.ts&#45;&gt;lib/functional/result.ts</title>
<path fill="none" stroke="#757575" d="M1432.66,-889.65C1465.88,-876.5 1520.31,-854.96 1557,-840.44"/>
<polygon fill="#757575" stroke="#757575" points="1558.37,-843.66 1566.38,-836.72 1555.79,-837.15 1558.37,-843.66"/>
</g>
<!-- lib/confignator/validators/mod.ts&#45;&gt;lib/json.ts -->
<g id="edge29" class="edge">
<title>lib/confignator/validators/mod.ts&#45;&gt;lib/json.ts</title>
<path fill="none" stroke="#757575" d="M677.81,-932.91C705.1,-946.62 753.09,-968.77 797,-979.2 1075.94,-1045.4 1423.69,-1043.23 1548.34,-1039.88"/>
<polygon fill="#757575" stroke="#757575" points="1548.76,-1043.37 1558.66,-1039.59 1548.56,-1036.37 1548.76,-1043.37"/>
</g>
<!-- lib/confignator/validators/mod.ts&#45;&gt;lib/confignator/types.ts -->
<g id="edge25" class="edge">
<title>lib/confignator/validators/mod.ts&#45;&gt;lib/confignator/types.ts</title>
<path fill="none" stroke="#757575" d="M761.36,-922.03C773.38,-922.1 785.45,-922.16 797,-922.2 1014.35,-922.96 1069.24,-931.3 1286,-915.2 1295.1,-914.52 1304.58,-913.65 1314.03,-912.67"/>
<polygon fill="#757575" stroke="#757575" points="1314.68,-916.12 1324.25,-911.57 1313.93,-909.16 1314.68,-916.12"/>
</g>
<!-- lib/confignator/validators/mod.ts&#45;&gt;lib/functional/result.ts -->
<g id="edge28" class="edge">
<title>lib/confignator/validators/mod.ts&#45;&gt;lib/functional/result.ts</title>
<path fill="none" stroke="#757575" d="M689.69,-909.66C718.09,-900.53 759.74,-888.19 797,-881.2 1054.94,-832.82 1366.84,-825.34 1512.73,-824.75"/>
<polygon fill="#757575" stroke="#757575" points="1512.95,-828.25 1522.94,-824.72 1512.93,-821.25 1512.95,-828.25"/>
</g>
<!-- lib/confignator/validators/address.ts -->
<g id="node19" class="node">
<title>lib/confignator/validators/address.ts</title>
<path fill="none" stroke="#c6c5fe" d="M1025.33,-912.7C1025.33,-912.7 804.67,-912.7 804.67,-912.7 800.83,-912.7 797,-908.86 797,-905.03 797,-905.03 797,-897.36 797,-897.36 797,-893.53 800.83,-889.7 804.67,-889.7 804.67,-889.7 1025.33,-889.7 1025.33,-889.7 1029.17,-889.7 1033,-893.53 1033,-897.36 1033,-897.36 1033,-905.03 1033,-905.03 1033,-908.86 1029.17,-912.7 1025.33,-912.7"/>
<text text-anchor="middle" x="915" y="-897.5" font-family="Arial" font-size="14.00" fill="#c6c5fe">lib/confignator/validators/address.ts</text>
</g>
<!-- lib/confignator/validators/mod.ts&#45;&gt;lib/confignator/validators/address.ts -->
<g id="edge26" class="edge">
<title>lib/confignator/validators/mod.ts&#45;&gt;lib/confignator/validators/address.ts</title>
<path fill="none" stroke="#757575" d="M761.01,-913.03C769.44,-912.38 778.01,-911.72 786.57,-911.06"/>
<polygon fill="#757575" stroke="#757575" points="786.9,-914.54 796.6,-910.28 786.36,-907.56 786.9,-914.54"/>
</g>
<!-- lib/confignator/validators/base.ts -->
<g id="node20" class="node">
<title>lib/confignator/validators/base.ts</title>
<path fill="none" stroke="#c6c5fe" d="M1278.33,-990.7C1278.33,-990.7 1076.67,-990.7 1076.67,-990.7 1072.83,-990.7 1069,-986.86 1069,-983.03 1069,-983.03 1069,-975.36 1069,-975.36 1069,-971.53 1072.83,-967.7 1076.67,-967.7 1076.67,-967.7 1278.33,-967.7 1278.33,-967.7 1282.17,-967.7 1286,-971.53 1286,-975.36 1286,-975.36 1286,-983.03 1286,-983.03 1286,-986.86 1282.17,-990.7 1278.33,-990.7"/>
<text text-anchor="middle" x="1177.5" y="-975.5" font-family="Arial" font-size="14.00" fill="#c6c5fe">lib/confignator/validators/base.ts</text>
</g>
<!-- lib/confignator/validators/mod.ts&#45;&gt;lib/confignator/validators/base.ts -->
<g id="edge27" class="edge">
<title>lib/confignator/validators/mod.ts&#45;&gt;lib/confignator/validators/base.ts</title>
<path fill="none" stroke="#757575" d="M695.39,-932.73C723.54,-940.39 762.27,-949.97 797,-955.2 883.98,-968.3 983.21,-974.26 1058.39,-976.97"/>
<polygon fill="#757575" stroke="#757575" points="1058.72,-980.48 1068.83,-977.33 1058.96,-973.49 1058.72,-980.48"/>
</g>
<!-- lib/confignator/validators/address.ts&#45;&gt;lib/functional/mod.ts -->
<g id="edge20" class="edge">
<title>lib/confignator/validators/address.ts&#45;&gt;lib/functional/mod.ts</title>
<path fill="none" stroke="#757575" d="M935.58,-889.62C981.22,-862.64 1094.81,-795.49 1148.08,-764"/>
<polygon fill="#757575" stroke="#757575" points="1149.87,-767.01 1156.69,-758.91 1146.3,-760.98 1149.87,-767.01"/>
</g>
<!-- lib/confignator/validators/address.ts&#45;&gt;lib/confignator/types.ts -->
<g id="edge18" class="edge">
<title>lib/confignator/validators/address.ts&#45;&gt;lib/confignator/types.ts</title>
<path fill="none" stroke="#757575" d="M1033.22,-901.2C1119.69,-901.2 1235.49,-901.2 1313.98,-901.2"/>
<polygon fill="#757575" stroke="#757575" points="1314.32,-904.7 1324.32,-901.2 1314.32,-897.7 1314.32,-904.7"/>
</g>
<!-- lib/confignator/validators/address.ts&#45;&gt;lib/functional/result.ts -->
<g id="edge21" class="edge">
<title>lib/confignator/validators/address.ts&#45;&gt;lib/functional/result.ts</title>
<path fill="none" stroke="#757575" d="M1018.83,-889.7C1153.8,-874.6 1388.08,-848.4 1512.42,-834.49"/>
<polygon fill="#757575" stroke="#757575" points="1513.1,-837.94 1522.64,-833.35 1512.32,-830.98 1513.1,-837.94"/>
</g>
<!-- lib/confignator/validators/address.ts&#45;&gt;lib/confignator/validators/base.ts -->
<g id="edge19" class="edge">
<title>lib/confignator/validators/address.ts&#45;&gt;lib/confignator/validators/base.ts</title>
<path fill="none" stroke="#757575" d="M954.44,-912.71C1000.61,-926.53 1078.11,-949.74 1128.26,-964.75"/>
<polygon fill="#757575" stroke="#757575" points="1127.32,-968.12 1137.9,-967.64 1129.33,-961.42 1127.32,-968.12"/>
</g>
<!-- lib/confignator/validators/base.ts&#45;&gt;lib/json.ts -->
<g id="edge24" class="edge">
<title>lib/confignator/validators/base.ts&#45;&gt;lib/json.ts</title>
<path fill="none" stroke="#757575" d="M1286.31,-983.14C1344.87,-986.6 1418.34,-993.08 1483,-1005.2 1506.49,-1009.6 1532.09,-1016.9 1552.94,-1023.52"/>
<polygon fill="#757575" stroke="#757575" points="1551.86,-1026.85 1562.45,-1026.6 1554.01,-1020.19 1551.86,-1026.85"/>
</g>
<!-- lib/confignator/validators/base.ts&#45;&gt;lib/confignator/types.ts -->
<g id="edge22" class="edge">
<title>lib/confignator/validators/base.ts&#45;&gt;lib/confignator/types.ts</title>
<path fill="none" stroke="#757575" d="M1243.18,-967.65C1257.61,-963.96 1272.6,-959.22 1286,-953.2 1303.77,-945.22 1304.61,-936.97 1322,-928.2 1330.98,-923.67 1340.89,-919.62 1350.59,-916.12"/>
<polygon fill="#757575" stroke="#757575" points="1351.86,-919.38 1360.16,-912.81 1349.57,-912.77 1351.86,-919.38"/>
</g>
<!-- lib/confignator/validators/base.ts&#45;&gt;lib/functional/result.ts -->
<g id="edge23" class="edge">
<title>lib/confignator/validators/base.ts&#45;&gt;lib/functional/result.ts</title>
<path fill="none" stroke="#757575" d="M1286,-972.87C1346.32,-966.01 1421.57,-951.74 1483,-922.2 1522.33,-903.28 1558.82,-866.99 1579.04,-844.56"/>
<polygon fill="#757575" stroke="#757575" points="1581.74,-846.79 1585.73,-836.98 1576.49,-842.16 1581.74,-846.79"/>
</g>
<!-- lib/functional/maybe.ts -->
<g id="node21" class="node">
<title>lib/functional/maybe.ts</title>
<path fill="none" stroke="#cfffac" d="M1666.33,-317.7C1666.33,-317.7 1526.67,-317.7 1526.67,-317.7 1522.83,-317.7 1519,-313.86 1519,-310.03 1519,-310.03 1519,-302.36 1519,-302.36 1519,-298.53 1522.83,-294.7 1526.67,-294.7 1526.67,-294.7 1666.33,-294.7 1666.33,-294.7 1670.17,-294.7 1674,-298.53 1674,-302.36 1674,-302.36 1674,-310.03 1674,-310.03 1674,-313.86 1670.17,-317.7 1666.33,-317.7"/>
<text text-anchor="middle" x="1596.5" y="-302.5" font-family="Arial" font-size="14.00" fill="#cfffac">lib/functional/maybe.ts</text>
</g>
<!-- lib/list.ts -->
<g id="node23" class="node">
<title>lib/list.ts</title>
<path fill="none" stroke="#cfffac" d="M462.33,-143.7C462.33,-143.7 411.67,-143.7 411.67,-143.7 407.83,-143.7 404,-139.86 404,-136.03 404,-136.03 404,-128.36 404,-128.36 404,-124.53 407.83,-120.7 411.67,-120.7 411.67,-120.7 462.33,-120.7 462.33,-120.7 466.17,-120.7 470,-124.53 470,-128.36 470,-128.36 470,-136.03 470,-136.03 470,-139.86 466.17,-143.7 462.33,-143.7"/>
<text text-anchor="middle" x="437" y="-128.5" font-family="Arial" font-size="14.00" fill="#cfffac">lib/list.ts</text>
</g>
<!-- lib/heap.ts&#45;&gt;lib/list.ts -->
<g id="edge31" class="edge">
<title>lib/heap.ts&#45;&gt;lib/list.ts</title>
<path fill="none" stroke="#757575" d="M309.3,-168.66C325.3,-163.46 344.56,-157.34 362,-152.2 372.35,-149.14 383.57,-146.02 394.06,-143.17"/>
<polygon fill="#757575" stroke="#757575" points="395.11,-146.52 403.86,-140.54 393.29,-139.76 395.11,-146.52"/>
</g>
<!-- lib/numbers/common.ts -->
<g id="node24" class="node">
<title>lib/numbers/common.ts</title>
<path fill="none" stroke="#c6c5fe" d="M1475.33,-438.7C1475.33,-438.7 1329.67,-438.7 1329.67,-438.7 1325.83,-438.7 1322,-434.86 1322,-431.03 1322,-431.03 1322,-423.36 1322,-423.36 1322,-419.53 1325.83,-415.7 1329.67,-415.7 1329.67,-415.7 1475.33,-415.7 1475.33,-415.7 1479.17,-415.7 1483,-419.53 1483,-423.36 1483,-423.36 1483,-431.03 1483,-431.03 1483,-434.86 1479.17,-438.7 1475.33,-438.7"/>
<text text-anchor="middle" x="1402.5" y="-423.5" font-family="Arial" font-size="14.00" fill="#c6c5fe">lib/numbers/common.ts</text>
</g>
<!-- lib/numbers/common.ts&#45;&gt;lib/functional/maybe.ts -->
<g id="edge32" class="edge">
<title>lib/numbers/common.ts&#45;&gt;lib/functional/maybe.ts</title>
<path fill="none" stroke="#757575" d="M1427.99,-415.69C1443.97,-407.91 1465.1,-397.1 1483,-386.2 1515.16,-366.6 1550.23,-340.92 1572.52,-324.01"/>
<polygon fill="#757575" stroke="#757575" points="1574.86,-326.62 1580.68,-317.77 1570.61,-321.06 1574.86,-326.62"/>
</g>
<!-- lib/numbers/nat.ts&#45;&gt;lib/tag_type.ts -->
<g id="edge39" class="edge">
<title>lib/numbers/nat.ts&#45;&gt;lib/tag_type.ts</title>
<path fill="none" stroke="#757575" d="M1228.4,-317.73C1246.58,-322.07 1267.27,-327.18 1286,-332.2 1308.57,-338.24 1333.46,-345.49 1354.33,-351.74"/>
<polygon fill="#757575" stroke="#757575" points="1353.33,-355.1 1363.92,-354.63 1355.35,-348.4 1353.33,-355.1"/>
</g>
<!-- lib/numbers/nat.ts&#45;&gt;lib/functional/maybe.ts -->
<g id="edge38" class="edge">
<title>lib/numbers/nat.ts&#45;&gt;lib/functional/maybe.ts</title>
<path fill="none" stroke="#757575" d="M1241.38,-306.2C1312.62,-306.2 1429.16,-306.2 1508.96,-306.2"/>
<polygon fill="#757575" stroke="#757575" points="1508.99,-309.7 1518.99,-306.2 1508.99,-302.7 1508.99,-309.7"/>
</g>
<!-- lib/numbers/u16.ts&#45;&gt;lib/tag_type.ts -->
<g id="edge41" class="edge">
<title>lib/numbers/u16.ts&#45;&gt;lib/tag_type.ts</title>
<path fill="none" stroke="#757575" d="M1243.07,-416.11C1257.3,-413.25 1272.23,-409.91 1286,-406.2 1311.88,-399.22 1340.34,-389.39 1362.53,-381.22"/>
<polygon fill="#757575" stroke="#757575" points="1363.79,-384.49 1371.94,-377.72 1361.35,-377.93 1363.79,-384.49"/>
</g>
<!-- lib/numbers/u16.ts&#45;&gt;lib/numbers/common.ts -->
<g id="edge40" class="edge">
<title>lib/numbers/u16.ts&#45;&gt;lib/numbers/common.ts</title>
<path fill="none" stroke="#757575" d="M1243,-427.2C1264.4,-427.2 1288.63,-427.2 1311.59,-427.2"/>
<polygon fill="#757575" stroke="#757575" points="1311.69,-430.7 1321.69,-427.2 1311.69,-423.7 1311.69,-430.7"/>
</g>
<!-- lib/numbers/u256.ts&#45;&gt;lib/tag_type.ts -->
<g id="edge43" class="edge">
<title>lib/numbers/u256.ts&#45;&gt;lib/tag_type.ts</title>
<path fill="none" stroke="#757575" d="M1247.23,-380.03C1277.11,-377.35 1311.81,-374.24 1340.73,-371.65"/>
<polygon fill="#757575" stroke="#757575" points="1341.06,-375.13 1350.7,-370.75 1340.43,-368.16 1341.06,-375.13"/>
</g>
<!-- lib/numbers/u256.ts&#45;&gt;lib/numbers/common.ts -->
<g id="edge42" class="edge">
<title>lib/numbers/u256.ts&#45;&gt;lib/numbers/common.ts</title>
<path fill="none" stroke="#757575" d="M1241.21,-397.73C1268.52,-402.75 1300.7,-408.66 1329.03,-413.87"/>
<polygon fill="#757575" stroke="#757575" points="1328.41,-417.32 1338.87,-415.68 1329.67,-410.43 1328.41,-417.32"/>
</g>
<!-- lib/numbers/u64.ts&#45;&gt;lib/tag_type.ts -->
<g id="edge45" class="edge">
<title>lib/numbers/u64.ts&#45;&gt;lib/tag_type.ts</title>
<path fill="none" stroke="#757575" d="M1243.11,-506.79C1258.42,-503.6 1273.83,-497.94 1286,-488.2 1317.07,-463.32 1294.6,-435.07 1322,-406.2 1331.58,-396.1 1344.25,-388.16 1356.66,-382.11"/>
<polygon fill="#757575" stroke="#757575" points="1358.39,-385.17 1366.04,-377.84 1355.49,-378.79 1358.39,-385.17"/>
</g>
<!-- lib/numbers/u64.ts&#45;&gt;lib/numbers/common.ts -->
<g id="edge44" class="edge">
<title>lib/numbers/u64.ts&#45;&gt;lib/numbers/common.ts</title>
<path fill="none" stroke="#757575" d="M1243.27,-499.73C1257.56,-496.76 1272.46,-492.98 1286,-488.2 1317.95,-476.92 1351.95,-458.02 1374.72,-444.25"/>
<polygon fill="#757575" stroke="#757575" points="1376.77,-447.1 1383.46,-438.88 1373.11,-441.13 1376.77,-447.1"/>
</g>
<!-- lib/numbers/u8.ts&#45;&gt;lib/tag_type.ts -->
<g id="edge47" class="edge">
<title>lib/numbers/u8.ts&#45;&gt;lib/tag_type.ts</title>
<path fill="none" stroke="#757575" d="M1239.28,-463.44C1255.23,-460.33 1271.9,-455.3 1286,-447.2 1307.03,-435.11 1302.82,-421.03 1322,-406.2 1334.31,-396.67 1349.25,-388.45 1362.84,-381.98"/>
<polygon fill="#757575" stroke="#757575" points="1364.35,-385.14 1371.98,-377.79 1361.43,-378.78 1364.35,-385.14"/>
</g>
<!-- lib/numbers/u8.ts&#45;&gt;lib/numbers/common.ts -->
<g id="edge46" class="edge">
<title>lib/numbers/u8.ts&#45;&gt;lib/numbers/common.ts</title>
<path fill="none" stroke="#757575" d="M1239.14,-457.05C1266.83,-451.96 1299.84,-445.89 1328.85,-440.55"/>
<polygon fill="#757575" stroke="#757575" points="1329.73,-443.95 1338.93,-438.7 1328.46,-437.07 1329.73,-443.95"/>
</g>
<!-- network.ts -->
<g id="node30" class="node">
<title>network.ts</title>
<path fill="none" stroke="#cfffac" d="M72.33,-843.7C72.33,-843.7 7.67,-843.7 7.67,-843.7 3.83,-843.7 0,-839.86 0,-836.03 0,-836.03 0,-828.36 0,-828.36 0,-824.53 3.83,-820.7 7.67,-820.7 7.67,-820.7 72.33,-820.7 72.33,-820.7 76.17,-820.7 80,-824.53 80,-828.36 80,-828.36 80,-836.03 80,-836.03 80,-839.86 76.17,-843.7 72.33,-843.7"/>
<text text-anchor="middle" x="40" y="-828.5" font-family="Arial" font-size="14.00" fill="#cfffac">network.ts</text>
</g>
<!-- serialization.ts&#45;&gt;lib/numbers/mod.ts -->
<g id="edge51" class="edge">
<title>serialization.ts&#45;&gt;lib/numbers/mod.ts</title>
<path fill="none" stroke="#757575" d="M289.14,-300.79C300.69,-310.66 316.4,-325.81 326,-342.2 354.37,-390.6 317.42,-429.13 362,-463.2 515.31,-580.37 768.82,-521.31 870.16,-490.72"/>
<polygon fill="#757575" stroke="#757575" points="871.24,-494.05 879.77,-487.77 869.18,-487.36 871.24,-494.05"/>
</g>
<!-- serialization.ts&#45;&gt;lib/tuple.ts -->
<g id="edge52" class="edge">
<title>serialization.ts&#45;&gt;lib/tuple.ts</title>
<path fill="none" stroke="#757575" d="M326.44,-300.35C374.58,-310.74 448.19,-326.75 512,-341.2 639.35,-370.03 789.03,-405.43 864.77,-423.45"/>
<polygon fill="#757575" stroke="#757575" points="864.41,-426.96 874.95,-425.87 866.04,-420.15 864.41,-426.96"/>
</g>
<!-- serialization.ts&#45;&gt;types/address.ts -->
<g id="edge53" class="edge">
<title>serialization.ts&#45;&gt;types/address.ts</title>
<path fill="none" stroke="#757575" d="M291.7,-300.82C308.95,-312.14 336.54,-329.32 362,-341.2 443.53,-379.22 543.42,-411.22 602.57,-428.76"/>
<polygon fill="#757575" stroke="#757575" points="601.83,-432.19 612.41,-431.65 603.81,-425.47 601.83,-432.19"/>
</g>
<!-- serialization.ts&#45;&gt;constants.ts -->
<g id="edge48" class="edge">
<title>serialization.ts&#45;&gt;constants.ts</title>
<path fill="none" stroke="#757575" d="M294.91,-277.43C304.96,-271.05 316.85,-262.55 326,-253.2 346.17,-232.58 339.22,-216.89 362,-199.2 367.92,-194.6 374.7,-190.78 381.72,-187.62"/>
<polygon fill="#757575" stroke="#757575" points="383.42,-190.7 391.36,-183.69 380.78,-184.22 383.42,-190.7"/>
</g>
<!-- serialization.ts&#45;&gt;lib/bit_str.ts -->
<g id="edge49" class="edge">
<title>serialization.ts&#45;&gt;lib/bit_str.ts</title>
<path fill="none" stroke="#757575" d="M326.13,-285C381.1,-280.68 470.63,-274.05 548,-270.2 659.5,-264.65 790.26,-261.54 861.38,-260.13"/>
<polygon fill="#757575" stroke="#757575" points="861.5,-263.63 871.43,-259.93 861.37,-256.63 861.5,-263.63"/>
</g>
<!-- serialization.ts&#45;&gt;lib/list.ts -->
<g id="edge50" class="edge">
<title>serialization.ts&#45;&gt;lib/list.ts</title>
<path fill="none" stroke="#757575" d="M281.33,-277.47C299.8,-245.89 350.17,-160.88 362,-152.2 371.28,-145.38 382.74,-140.89 393.85,-137.93"/>
<polygon fill="#757575" stroke="#757575" points="394.92,-141.28 403.87,-135.62 393.34,-134.45 394.92,-141.28"/>
</g>
<!-- serialization.ts&#45;&gt;types/blockchain.ts -->
<g id="edge54" class="edge">
<title>serialization.ts&#45;&gt;types/blockchain.ts</title>
<path fill="none" stroke="#757575" d="M326.01,-289.47C390.57,-289.81 501.81,-290.4 576.5,-290.79"/>
<polygon fill="#757575" stroke="#757575" points="576.77,-294.29 586.79,-290.84 576.81,-287.29 576.77,-294.29"/>
</g>
<!-- serialization.ts&#45;&gt;types/hash.ts -->
<g id="edge55" class="edge">
<title>serialization.ts&#45;&gt;types/hash.ts</title>
<path fill="none" stroke="#757575" d="M321.58,-277.69C334.63,-274.7 348.82,-271.64 362,-269.2 540.76,-236.03 754.31,-209.01 855.4,-196.97"/>
<polygon fill="#757575" stroke="#757575" points="855.9,-200.44 865.42,-195.78 855.07,-193.48 855.9,-200.44"/>
</g>
<!-- serialization.ts&#45;&gt;types/network.ts -->
<g id="edge56" class="edge">
<title>serialization.ts&#45;&gt;types/network.ts</title>
<path fill="none" stroke="#757575" d="M285.79,-300.82C309.21,-324.94 361.02,-378.27 362,-379.2 378.99,-395.23 399.08,-412.5 414.04,-425.06"/>
<polygon fill="#757575" stroke="#757575" points="411.85,-427.79 421.77,-431.52 416.34,-422.42 411.85,-427.79"/>
</g>
<!-- serialization.ts&#45;&gt;util.ts -->
<g id="edge57" class="edge">
<title>serialization.ts&#45;&gt;util.ts</title>
<path fill="none" stroke="#757575" d="M281.87,-277.68C292.38,-260.98 311.97,-228.91 326,-200.2 344.73,-161.86 330.07,-139.5 362,-111.2 372.48,-101.91 386.84,-96.88 400.12,-94.17"/>
<polygon fill="#757575" stroke="#757575" points="400.7,-97.63 409.99,-92.53 399.55,-90.72 400.7,-97.63"/>
</g>
<!-- types/blockchain.ts&#45;&gt;lib/numbers/mod.ts -->
<g id="edge61" class="edge">
<title>types/blockchain.ts&#45;&gt;lib/numbers/mod.ts</title>
<path fill="none" stroke="#757575" d="M665.07,-303.19C694.01,-339.33 779.69,-445.32 797,-455.2 809.19,-462.15 823.16,-466.89 837.1,-470.1"/>
<polygon fill="#757575" stroke="#757575" points="836.72,-473.6 847.22,-472.18 838.13,-466.74 836.72,-473.6"/>
</g>
<!-- types/blockchain.ts&#45;&gt;lib/bit_str.ts -->
<g id="edge60" class="edge">
<title>types/blockchain.ts&#45;&gt;lib/bit_str.ts</title>
<path fill="none" stroke="#757575" d="M722.07,-282.96C765.28,-277.61 820.82,-270.73 861.03,-265.75"/>
<polygon fill="#757575" stroke="#757575" points="861.67,-269.2 871.16,-264.5 860.81,-262.25 861.67,-269.2"/>
</g>
<!-- types/blockchain.ts&#45;&gt;lib/tag_type.ts -->
<g id="edge62" class="edge">
<title>types/blockchain.ts&#45;&gt;lib/tag_type.ts</title>
<path fill="none" stroke="#757575" d="M722.03,-297.89C865.57,-312.32 1202.49,-346.19 1340.71,-360.08"/>
<polygon fill="#757575" stroke="#757575" points="1340.4,-363.57 1350.7,-361.09 1341.1,-356.61 1340.4,-363.57"/>
</g>
<!-- types/blockchain.ts&#45;&gt;types/hash.ts -->
<g id="edge63" class="edge">
<title>types/blockchain.ts&#45;&gt;types/hash.ts</title>
<path fill="none" stroke="#757575" d="M685.15,-279.61C731.87,-261.36 822.65,-225.89 874.73,-205.54"/>
<polygon fill="#757575" stroke="#757575" points="876.25,-208.7 884.3,-201.8 873.71,-202.18 876.25,-208.7"/>
</g>
<!-- types/hash.ts&#45;&gt;lib/tag_type.ts -->
<g id="edge65" class="edge">
<title>types/hash.ts&#45;&gt;lib/tag_type.ts</title>
<path fill="none" stroke="#757575" d="M964.77,-194.01C1052.01,-201.47 1230.8,-219.75 1286,-248.2 1331.1,-271.44 1369.05,-318.95 1388.17,-346.06"/>
<polygon fill="#757575" stroke="#757575" points="1385.37,-348.15 1393.92,-354.4 1391.13,-344.18 1385.37,-348.15"/>
</g>
<!-- types/hash.ts&#45;&gt;lib/functional/maybe.ts -->
<g id="edge64" class="edge">
<title>types/hash.ts&#45;&gt;lib/functional/maybe.ts</title>
<path fill="none" stroke="#757575" d="M964.65,-187.74C1035.84,-185.1 1172.28,-183.73 1286,-204.2 1388.11,-222.58 1502.76,-266.97 1559.57,-290.67"/>
<polygon fill="#757575" stroke="#757575" points="1558.27,-293.92 1568.84,-294.57 1560.98,-287.46 1558.27,-293.92"/>
</g>
<!-- types/network.ts&#45;&gt;types/address.ts -->
<g id="edge66" class="edge">
<title>types/network.ts&#45;&gt;types/address.ts</title>
<path fill="none" stroke="#757575" d="M496.03,-443.2C523.46,-443.2 556.38,-443.2 585.02,-443.2"/>
<polygon fill="#757575" stroke="#757575" points="585.36,-446.7 595.36,-443.2 585.36,-439.7 585.36,-446.7"/>
</g>
<!-- types/network.ts&#45;&gt;types/blockchain.ts -->
<g id="edge67" class="edge">
<title>types/network.ts&#45;&gt;types/blockchain.ts</title>
<path fill="none" stroke="#757575" d="M479.98,-431.62C490.79,-427.8 502.15,-423.01 512,-417.2 562.59,-387.37 611.44,-337.87 636.37,-310.64"/>
<polygon fill="#757575" stroke="#757575" points="639.21,-312.71 643.31,-302.95 634.01,-308.02 639.21,-312.71"/>
</g>
</g>
</svg>
