<svg width="480" height="360" viewBox="0 0 480 360" fill="none" xmlns="http://www.w3.org/2000/svg">
<rect width="480" height="360" fill="#EDEDED"/>
<rect width="480" height="360" fill="#EDEDED"/>
<rect x="21.5" y="20.5" width="161" height="319" fill="#C4C4C4" stroke="black"/>
<rect x="38" y="51" width="128" height="24" fill="#E4E4E4" stroke="black"/>
<path d="M39.1826 47.8438H40.4473V44.2891C40.5384 44.3893 40.6364 44.4827 40.7412 44.5693C40.846 44.6514 40.9577 44.7266 41.0762 44.7949C41.2721 44.9043 41.4909 44.9886 41.7324 45.0479C41.9785 45.1071 42.2428 45.1367 42.5254 45.1367C42.9902 45.1367 43.4027 45.041 43.7627 44.8496C44.1273 44.6582 44.4326 44.3939 44.6787 44.0566C44.9248 43.7194 45.1117 43.3229 45.2393 42.8672C45.3669 42.4069 45.4307 41.9124 45.4307 41.3838V41.2402C45.4307 40.6888 45.3669 40.1829 45.2393 39.7227C45.1117 39.2578 44.9248 38.859 44.6787 38.5264C44.4326 38.1937 44.1273 37.9339 43.7627 37.7471C43.3981 37.5602 42.9788 37.4668 42.5049 37.4668C42.236 37.4668 41.9831 37.4964 41.7461 37.5557C41.5137 37.6104 41.3018 37.6924 41.1104 37.8018C40.9736 37.8747 40.846 37.9635 40.7275 38.0684C40.609 38.1686 40.4997 38.2826 40.3994 38.4102L40.3379 37.6035H39.1826V47.8438ZM44.166 41.2402V41.3838C44.166 41.7438 44.125 42.0879 44.043 42.416C43.9655 42.7441 43.8447 43.0335 43.6807 43.2842C43.5166 43.5348 43.307 43.7354 43.0518 43.8857C42.7965 44.0316 42.4935 44.1045 42.1426 44.1045C41.9238 44.1045 41.7233 44.0771 41.541 44.0225C41.3633 43.9678 41.2015 43.8926 41.0557 43.7969C40.9281 43.7148 40.8141 43.6146 40.7139 43.4961C40.6136 43.3776 40.5247 43.25 40.4473 43.1133V39.5518C40.5339 39.3968 40.6341 39.2555 40.748 39.1279C40.862 39.0003 40.9919 38.8932 41.1377 38.8066C41.2699 38.7201 41.418 38.654 41.582 38.6084C41.7507 38.5628 41.9329 38.54 42.1289 38.54C42.4844 38.54 42.7897 38.613 43.0449 38.7588C43.3001 38.9046 43.512 39.1006 43.6807 39.3467C43.8447 39.5973 43.9655 39.8867 44.043 40.2148C44.125 40.5384 44.166 40.8802 44.166 41.2402ZM52.4443 37.4668C51.9066 37.4668 51.4258 37.5853 51.002 37.8223C50.5827 38.0547 50.2227 38.3737 49.9219 38.7793L49.915 38.5947L49.8604 37.6035H48.6572V45H49.9287V40.2559C50.0107 40.028 50.1133 39.8229 50.2363 39.6406C50.3639 39.4538 50.512 39.2965 50.6807 39.1689C50.8675 39.0231 51.0863 38.9137 51.3369 38.8408C51.5876 38.7633 51.8678 38.7246 52.1777 38.7246C52.4193 38.7246 52.6494 38.7383 52.8682 38.7656C53.0915 38.7884 53.3262 38.8271 53.5723 38.8818L53.7432 37.6445C53.6156 37.5898 53.4242 37.5465 53.1689 37.5146C52.9183 37.4827 52.6768 37.4668 52.4443 37.4668ZM59.2734 45.1367C59.9935 45.1367 60.5973 44.9932 61.085 44.7061C61.5771 44.4144 61.9463 44.0817 62.1924 43.708L61.4199 43.1064C61.1875 43.4072 60.8958 43.6488 60.5449 43.8311C60.194 44.0133 59.793 44.1045 59.3418 44.1045C59 44.1045 58.6878 44.0407 58.4053 43.9131C58.1227 43.7855 57.8812 43.61 57.6807 43.3867C57.4847 43.1771 57.3298 42.9355 57.2158 42.6621C57.1064 42.3887 57.0358 42.0719 57.0039 41.7119V41.6641H62.2881V41.0967C62.2881 40.5817 62.222 40.1032 62.0898 39.6611C61.9622 39.2191 61.7663 38.834 61.502 38.5059C61.2376 38.1823 60.9049 37.9294 60.5039 37.7471C60.1074 37.5602 59.6426 37.4668 59.1094 37.4668C58.6855 37.4668 58.2708 37.5534 57.8652 37.7266C57.4642 37.8997 57.1064 38.1481 56.792 38.4717C56.473 38.7998 56.2178 39.2008 56.0264 39.6748C55.835 40.1442 55.7393 40.6774 55.7393 41.2744V41.5615C55.7393 42.0765 55.8258 42.5527 55.999 42.9902C56.1722 43.4277 56.4137 43.806 56.7236 44.125C57.0335 44.444 57.4049 44.6924 57.8379 44.8701C58.2754 45.0479 58.7539 45.1367 59.2734 45.1367ZM59.1094 38.5059C59.4329 38.5059 59.7109 38.5651 59.9434 38.6836C60.1803 38.8021 60.3763 38.957 60.5312 39.1484C60.6862 39.3398 60.807 39.5677 60.8936 39.832C60.9801 40.0918 61.0234 40.3356 61.0234 40.5635V40.625H57.0449C57.0951 40.2832 57.1816 39.9824 57.3047 39.7227C57.4323 39.4583 57.5872 39.235 57.7695 39.0527C57.9518 38.875 58.1569 38.7406 58.3848 38.6494C58.6126 38.5537 58.8542 38.5059 59.1094 38.5059ZM66.9365 45H67.9004L70.915 37.6035H69.623L67.5518 43.1816L67.4287 43.6396L67.3125 43.1816L65.1934 37.6035H63.8945L66.9365 45Z" fill="black"/>
<rect x="38" y="163" width="128" height="162" fill="#E4E4E4" stroke="black"/>
<path d="M38.9502 153.24V153.384C38.9502 153.912 39.0208 154.407 39.1621 154.867C39.3034 155.323 39.5016 155.719 39.7568 156.057C40.012 156.394 40.3197 156.658 40.6797 156.85C41.0443 157.041 41.4499 157.137 41.8965 157.137C42.3522 157.137 42.751 157.059 43.0928 156.904C43.4346 156.749 43.7285 156.521 43.9746 156.221L44.0293 157H45.1914V146.5H43.9268V150.335C43.6852 150.052 43.3981 149.838 43.0654 149.692C42.7373 149.542 42.3522 149.467 41.9102 149.467C41.459 149.467 41.0511 149.56 40.6865 149.747C40.3219 149.934 40.012 150.194 39.7568 150.526C39.4971 150.859 39.2965 151.258 39.1553 151.723C39.0186 152.183 38.9502 152.689 38.9502 153.24ZM40.2148 153.384V153.24C40.2148 152.88 40.2536 152.538 40.3311 152.215C40.4085 151.887 40.5293 151.597 40.6934 151.347C40.8529 151.101 41.0579 150.905 41.3086 150.759C41.5638 150.613 41.8691 150.54 42.2246 150.54C42.6393 150.54 42.9857 150.638 43.2637 150.834C43.5417 151.025 43.7627 151.271 43.9268 151.572V155.004C43.7627 155.327 43.5417 155.585 43.2637 155.776C42.9857 155.968 42.6348 156.063 42.2109 156.063C41.86 156.063 41.5592 155.993 41.3086 155.852C41.0579 155.706 40.8529 155.51 40.6934 155.264C40.5293 155.018 40.4085 154.733 40.3311 154.409C40.2536 154.086 40.2148 153.744 40.2148 153.384ZM52.458 157H53.7773V156.891C53.6953 156.686 53.6315 156.446 53.5859 156.173C53.5404 155.895 53.5176 155.633 53.5176 155.387V151.948C53.5176 151.534 53.4424 151.171 53.292 150.861C53.1416 150.551 52.9365 150.292 52.6768 150.082C52.4124 149.877 52.1003 149.724 51.7402 149.624C51.3802 149.519 50.9906 149.467 50.5713 149.467C50.111 149.467 49.6986 149.531 49.334 149.658C48.974 149.786 48.6686 149.952 48.418 150.157C48.1628 150.367 47.9668 150.602 47.8301 150.861C47.6979 151.121 47.6296 151.385 47.625 151.654H48.8965C48.8965 151.499 48.9329 151.351 49.0059 151.21C49.0833 151.064 49.1904 150.939 49.3271 150.834C49.4639 150.729 49.6302 150.645 49.8262 150.581C50.0267 150.517 50.2523 150.485 50.5029 150.485C50.7718 150.485 51.0133 150.52 51.2275 150.588C51.4463 150.656 51.6309 150.752 51.7812 150.875C51.9316 151.003 52.0479 151.155 52.1299 151.333C52.2119 151.511 52.2529 151.711 52.2529 151.935V152.516H50.8721C50.3571 152.516 49.89 152.566 49.4707 152.666C49.056 152.766 48.7005 152.917 48.4043 153.117C48.1081 153.322 47.8779 153.577 47.7139 153.883C47.5544 154.188 47.4746 154.544 47.4746 154.949C47.4746 155.259 47.5339 155.549 47.6523 155.817C47.7754 156.082 47.9486 156.31 48.1719 156.501C48.3906 156.697 48.6572 156.852 48.9717 156.966C49.2907 157.08 49.6462 157.137 50.0381 157.137C50.2796 157.137 50.5075 157.112 50.7217 157.062C50.9359 157.011 51.1387 156.943 51.3301 156.856C51.5169 156.77 51.6878 156.67 51.8428 156.556C52.0023 156.442 52.1458 156.321 52.2734 156.193C52.2871 156.348 52.3076 156.499 52.335 156.645C52.3669 156.786 52.4079 156.904 52.458 157ZM50.2227 156.036C49.9766 156.036 49.7601 156.004 49.5732 155.94C49.3864 155.877 49.2314 155.788 49.1084 155.674C48.9854 155.564 48.8919 155.432 48.8281 155.277C48.7689 155.122 48.7393 154.954 48.7393 154.771C48.7393 154.58 48.7734 154.409 48.8418 154.259C48.9147 154.108 49.0195 153.979 49.1562 153.869C49.3477 153.714 49.6051 153.6 49.9287 153.527C50.2568 153.45 50.6396 153.411 51.0771 153.411H52.2529V154.908C52.18 155.054 52.0798 155.195 51.9521 155.332C51.8245 155.464 51.6742 155.583 51.501 155.688C51.3232 155.792 51.1273 155.877 50.9131 155.94C50.6989 156.004 50.4688 156.036 50.2227 156.036ZM59 147.812H57.7285V149.604H55.7871V150.581H57.7285V154.601C57.7285 155.056 57.7878 155.446 57.9062 155.77C58.0293 156.089 58.1956 156.348 58.4053 156.549C58.6149 156.754 58.861 156.904 59.1436 157C59.4307 157.091 59.7383 157.137 60.0664 157.137C60.2624 157.137 60.4583 157.128 60.6543 157.109C60.8548 157.091 61.0439 157.064 61.2217 157.027C61.3994 156.995 61.5635 156.957 61.7139 156.911C61.8643 156.861 61.9919 156.804 62.0967 156.74L61.9189 155.845C61.8415 155.863 61.7412 155.886 61.6182 155.913C61.4997 155.936 61.3721 155.959 61.2354 155.981C61.0941 156.004 60.9505 156.025 60.8047 156.043C60.6589 156.057 60.5176 156.063 60.3809 156.063C60.194 156.063 60.0163 156.041 59.8477 155.995C59.6836 155.95 59.5378 155.87 59.4102 155.756C59.2826 155.646 59.1823 155.498 59.1094 155.312C59.0365 155.125 59 154.888 59 154.601V150.581H61.8164V149.604H59V147.812ZM69.2744 157H70.5938V156.891C70.5117 156.686 70.4479 156.446 70.4023 156.173C70.3568 155.895 70.334 155.633 70.334 155.387V151.948C70.334 151.534 70.2588 151.171 70.1084 150.861C69.958 150.551 69.7529 150.292 69.4932 150.082C69.2288 149.877 68.9167 149.724 68.5566 149.624C68.1966 149.519 67.807 149.467 67.3877 149.467C66.9274 149.467 66.515 149.531 66.1504 149.658C65.7904 149.786 65.485 149.952 65.2344 150.157C64.9792 150.367 64.7832 150.602 64.6465 150.861C64.5143 151.121 64.446 151.385 64.4414 151.654H65.7129C65.7129 151.499 65.7493 151.351 65.8223 151.21C65.8997 151.064 66.0068 150.939 66.1436 150.834C66.2803 150.729 66.4466 150.645 66.6426 150.581C66.8431 150.517 67.0687 150.485 67.3193 150.485C67.5882 150.485 67.8298 150.52 68.0439 150.588C68.2627 150.656 68.4473 150.752 68.5977 150.875C68.748 151.003 68.8643 151.155 68.9463 151.333C69.0283 151.511 69.0693 151.711 69.0693 151.935V152.516H67.6885C67.1735 152.516 66.7064 152.566 66.2871 152.666C65.8724 152.766 65.5169 152.917 65.2207 153.117C64.9245 153.322 64.6943 153.577 64.5303 153.883C64.3708 154.188 64.291 154.544 64.291 154.949C64.291 155.259 64.3503 155.549 64.4688 155.817C64.5918 156.082 64.765 156.31 64.9883 156.501C65.207 156.697 65.4736 156.852 65.7881 156.966C66.1071 157.08 66.4626 157.137 66.8545 157.137C67.096 157.137 67.3239 157.112 67.5381 157.062C67.7523 157.011 67.9551 156.943 68.1465 156.856C68.3333 156.77 68.5042 156.67 68.6592 156.556C68.8187 156.442 68.9622 156.321 69.0898 156.193C69.1035 156.348 69.124 156.499 69.1514 156.645C69.1833 156.786 69.2243 156.904 69.2744 157ZM67.0391 156.036C66.793 156.036 66.5765 156.004 66.3896 155.94C66.2028 155.877 66.0479 155.788 65.9248 155.674C65.8018 155.564 65.7083 155.432 65.6445 155.277C65.5853 155.122 65.5557 154.954 65.5557 154.771C65.5557 154.58 65.5898 154.409 65.6582 154.259C65.7311 154.108 65.8359 153.979 65.9727 153.869C66.1641 153.714 66.4215 153.6 66.7451 153.527C67.0732 153.45 67.4561 153.411 67.8936 153.411H69.0693V154.908C68.9964 155.054 68.8962 155.195 68.7686 155.332C68.641 155.464 68.4906 155.583 68.3174 155.688C68.1396 155.792 67.9437 155.877 67.7295 155.94C67.5153 156.004 67.2852 156.036 67.0391 156.036Z" fill="black"/>
<rect x="38" y="107" width="128" height="24" fill="#E4E4E4" stroke="black"/>
<rect x="304" y="221" width="64" height="24" fill="#E4E4E4" stroke="black"/>
<rect x="368" y="221" width="32" height="24" fill="#E4E4E4" stroke="black"/>
<rect width="96" height="24" transform="matrix(-1 0 0 1 166 107)" fill="#E4E4E4" stroke="black"/>
<path d="M39.1895 101H40.4541V95.6953C40.5407 95.5358 40.641 95.39 40.7549 95.2578C40.8734 95.1257 41.001 95.0094 41.1377 94.9092C41.3063 94.7952 41.4909 94.7064 41.6914 94.6426C41.8919 94.5742 42.1084 94.54 42.3408 94.54C42.6097 94.54 42.8467 94.5719 43.0518 94.6357C43.2614 94.6995 43.4391 94.8021 43.585 94.9434C43.7262 95.0846 43.8333 95.2692 43.9062 95.4971C43.9792 95.7249 44.0156 96.0029 44.0156 96.3311V101H45.2803V96.3037C45.2803 95.8115 45.2188 95.3877 45.0957 95.0322C44.9772 94.6722 44.8063 94.376 44.583 94.1436C44.3597 93.9111 44.0885 93.7402 43.7695 93.6309C43.4551 93.5215 43.1042 93.4668 42.7168 93.4668C42.4297 93.4714 42.1562 93.5146 41.8965 93.5967C41.6413 93.6742 41.4043 93.7858 41.1855 93.9316C41.0397 94.0273 40.9007 94.1413 40.7686 94.2734C40.641 94.401 40.5225 94.5423 40.4131 94.6973L40.3242 93.6035H39.1895V101ZM47.2422 97.2334V97.3838C47.2422 97.917 47.3197 98.4115 47.4746 98.8672C47.6296 99.3229 47.8529 99.7194 48.1445 100.057C48.4316 100.394 48.7826 100.658 49.1973 100.85C49.6165 101.041 50.0882 101.137 50.6123 101.137C51.1318 101.137 51.599 101.041 52.0137 100.85C52.4284 100.658 52.7816 100.394 53.0732 100.057C53.3604 99.7194 53.5814 99.3229 53.7363 98.8672C53.8913 98.4115 53.9688 97.917 53.9688 97.3838V97.2334C53.9688 96.7002 53.8913 96.2057 53.7363 95.75C53.5814 95.2897 53.3604 94.891 53.0732 94.5537C52.7816 94.2165 52.4261 93.9521 52.0068 93.7607C51.5921 93.5648 51.1227 93.4668 50.5986 93.4668C50.0791 93.4668 49.612 93.5648 49.1973 93.7607C48.7826 93.9521 48.4316 94.2165 48.1445 94.5537C47.8529 94.891 47.6296 95.2897 47.4746 95.75C47.3197 96.2057 47.2422 96.7002 47.2422 97.2334ZM48.5068 97.3838V97.2334C48.5068 96.8734 48.5501 96.5293 48.6367 96.2012C48.7233 95.8685 48.8555 95.5768 49.0332 95.3262C49.2064 95.0755 49.4229 94.8773 49.6826 94.7314C49.9424 94.5811 50.2477 94.5059 50.5986 94.5059C50.9495 94.5059 51.2549 94.5811 51.5146 94.7314C51.779 94.8773 52 95.0755 52.1777 95.3262C52.3509 95.5768 52.4808 95.8685 52.5674 96.2012C52.6585 96.5293 52.7041 96.8734 52.7041 97.2334V97.3838C52.7041 97.7484 52.6608 98.097 52.5742 98.4297C52.4876 98.7578 52.3577 99.0472 52.1846 99.2979C52.0068 99.5485 51.7858 99.7467 51.5215 99.8926C51.2617 100.038 50.9587 100.111 50.6123 100.111C50.2614 100.111 49.9538 100.038 49.6895 99.8926C49.4251 99.7467 49.2064 99.5485 49.0332 99.2979C48.8555 99.0472 48.7233 98.7578 48.6367 98.4297C48.5501 98.097 48.5068 97.7484 48.5068 97.3838ZM56.0059 101H57.2705V95.6953C57.3571 95.5358 57.4574 95.39 57.5713 95.2578C57.6898 95.1257 57.8174 95.0094 57.9541 94.9092C58.1227 94.7952 58.3073 94.7064 58.5078 94.6426C58.7083 94.5742 58.9248 94.54 59.1572 94.54C59.4261 94.54 59.6631 94.5719 59.8682 94.6357C60.0778 94.6995 60.2555 94.8021 60.4014 94.9434C60.5426 95.0846 60.6497 95.2692 60.7227 95.4971C60.7956 95.7249 60.832 96.0029 60.832 96.3311V101H62.0967V96.3037C62.0967 95.8115 62.0352 95.3877 61.9121 95.0322C61.7936 94.6722 61.6227 94.376 61.3994 94.1436C61.1761 93.9111 60.9049 93.7402 60.5859 93.6309C60.2715 93.5215 59.9206 93.4668 59.5332 93.4668C59.2461 93.4714 58.9727 93.5146 58.7129 93.5967C58.4577 93.6742 58.2207 93.7858 58.002 93.9316C57.8561 94.0273 57.7171 94.1413 57.585 94.2734C57.4574 94.401 57.3389 94.5423 57.2295 94.6973L57.1406 93.6035H56.0059V101ZM67.5654 100.111C67.1689 100.111 66.8363 100.034 66.5674 99.8789C66.3031 99.7194 66.0911 99.512 65.9316 99.2568C65.7676 99.0062 65.6491 98.7236 65.5762 98.4092C65.5078 98.0902 65.4736 97.7689 65.4736 97.4453V97.1582C65.4736 96.8392 65.5078 96.5225 65.5762 96.208C65.6491 95.8936 65.7676 95.6087 65.9316 95.3535C66.0957 95.1029 66.3099 94.9001 66.5742 94.7451C66.8431 94.5856 67.1735 94.5059 67.5654 94.5059C67.8206 94.5059 68.0576 94.5492 68.2764 94.6357C68.4997 94.7223 68.6911 94.8408 68.8506 94.9912C69.0101 95.1416 69.1354 95.3171 69.2266 95.5176C69.3223 95.7135 69.3724 95.9232 69.377 96.1465H70.5732C70.5732 95.7728 70.498 95.4219 70.3477 95.0938C70.1973 94.7656 69.9899 94.4808 69.7256 94.2393C69.4567 94.0023 69.1377 93.8154 68.7686 93.6787C68.404 93.5374 68.0029 93.4668 67.5654 93.4668C67.0049 93.4668 66.515 93.5671 66.0957 93.7676C65.6764 93.9681 65.3278 94.237 65.0498 94.5742C64.7673 94.916 64.5553 95.3102 64.4141 95.7568C64.2728 96.2035 64.2021 96.6706 64.2021 97.1582V97.4453C64.2021 97.9375 64.2728 98.4069 64.4141 98.8535C64.5553 99.2956 64.7673 99.6852 65.0498 100.022C65.3278 100.364 65.6764 100.635 66.0957 100.836C66.515 101.036 67.0049 101.137 67.5654 101.137C67.9574 101.137 68.3333 101.071 68.6934 100.938C69.0534 100.802 69.3724 100.619 69.6504 100.392C69.9284 100.168 70.1494 99.9085 70.3135 99.6123C70.4821 99.3115 70.5687 98.9971 70.5732 98.6689H69.377C69.3724 98.874 69.3177 99.0654 69.2129 99.2432C69.1126 99.4163 68.9782 99.5667 68.8096 99.6943C68.641 99.8265 68.4473 99.929 68.2285 100.002C68.0143 100.075 67.7933 100.111 67.5654 100.111ZM76.0898 101.137C76.8099 101.137 77.4137 100.993 77.9014 100.706C78.3936 100.414 78.7627 100.082 79.0088 99.708L78.2363 99.1064C78.0039 99.4072 77.7122 99.6488 77.3613 99.8311C77.0104 100.013 76.6094 100.104 76.1582 100.104C75.8164 100.104 75.5042 100.041 75.2217 99.9131C74.9391 99.7855 74.6976 99.61 74.4971 99.3867C74.3011 99.1771 74.1462 98.9355 74.0322 98.6621C73.9229 98.3887 73.8522 98.0719 73.8203 97.7119V97.6641H79.1045V97.0967C79.1045 96.5817 79.0384 96.1032 78.9062 95.6611C78.7786 95.2191 78.5827 94.834 78.3184 94.5059C78.054 94.1823 77.7214 93.9294 77.3203 93.7471C76.9238 93.5602 76.459 93.4668 75.9258 93.4668C75.502 93.4668 75.0872 93.5534 74.6816 93.7266C74.2806 93.8997 73.9229 94.1481 73.6084 94.4717C73.2894 94.7998 73.0342 95.2008 72.8428 95.6748C72.6514 96.1442 72.5557 96.6774 72.5557 97.2744V97.5615C72.5557 98.0765 72.6423 98.5527 72.8154 98.9902C72.9886 99.4277 73.2301 99.806 73.54 100.125C73.8499 100.444 74.2214 100.692 74.6543 100.87C75.0918 101.048 75.5703 101.137 76.0898 101.137ZM75.9258 94.5059C76.2493 94.5059 76.5273 94.5651 76.7598 94.6836C76.9967 94.8021 77.1927 94.957 77.3477 95.1484C77.5026 95.3398 77.6234 95.5677 77.71 95.832C77.7965 96.0918 77.8398 96.3356 77.8398 96.5635V96.625H73.8613C73.9115 96.2832 73.998 95.9824 74.1211 95.7227C74.2487 95.4583 74.4036 95.235 74.5859 95.0527C74.7682 94.875 74.9733 94.7406 75.2012 94.6494C75.429 94.5537 75.6706 94.5059 75.9258 94.5059Z" fill="black"/>
<path d="M105.215 124H106.07L107.049 120.115L107.207 119.131L107.371 120.115L108.361 124H109.217L110.564 117.66H109.604L108.9 121.703L108.742 122.699L108.572 121.703L107.564 117.66H106.867L105.854 121.703L105.695 122.611L105.566 121.703L104.828 117.66H103.867L105.215 124ZM111.508 120.771V120.9C111.508 121.357 111.574 121.781 111.707 122.172C111.84 122.562 112.031 122.902 112.281 123.191C112.527 123.48 112.828 123.707 113.184 123.871C113.543 124.035 113.947 124.117 114.396 124.117C114.842 124.117 115.242 124.035 115.598 123.871C115.953 123.707 116.256 123.48 116.506 123.191C116.752 122.902 116.941 122.562 117.074 122.172C117.207 121.781 117.273 121.357 117.273 120.9V120.771C117.273 120.314 117.207 119.891 117.074 119.5C116.941 119.105 116.752 118.764 116.506 118.475C116.256 118.186 115.951 117.959 115.592 117.795C115.236 117.627 114.834 117.543 114.385 117.543C113.939 117.543 113.539 117.627 113.184 117.795C112.828 117.959 112.527 118.186 112.281 118.475C112.031 118.764 111.84 119.105 111.707 119.5C111.574 119.891 111.508 120.314 111.508 120.771ZM112.592 120.9V120.771C112.592 120.463 112.629 120.168 112.703 119.887C112.777 119.602 112.891 119.352 113.043 119.137C113.191 118.922 113.377 118.752 113.6 118.627C113.822 118.498 114.084 118.434 114.385 118.434C114.686 118.434 114.947 118.498 115.17 118.627C115.396 118.752 115.586 118.922 115.738 119.137C115.887 119.352 115.998 119.602 116.072 119.887C116.15 120.168 116.189 120.463 116.189 120.771V120.9C116.189 121.213 116.152 121.512 116.078 121.797C116.004 122.078 115.893 122.326 115.744 122.541C115.592 122.756 115.402 122.926 115.176 123.051C114.953 123.176 114.693 123.238 114.396 123.238C114.096 123.238 113.832 123.176 113.605 123.051C113.379 122.926 113.191 122.756 113.043 122.541C112.891 122.326 112.777 122.078 112.703 121.797C112.629 121.512 112.592 121.213 112.592 120.9ZM123.174 117.543C122.713 117.543 122.301 117.645 121.938 117.848C121.578 118.047 121.27 118.32 121.012 118.668L121.006 118.51L120.959 117.66H119.928V124H121.018V119.934C121.088 119.738 121.176 119.562 121.281 119.406C121.391 119.246 121.518 119.111 121.662 119.002C121.822 118.877 122.01 118.783 122.225 118.721C122.439 118.654 122.68 118.621 122.945 118.621C123.152 118.621 123.35 118.633 123.537 118.656C123.729 118.676 123.93 118.709 124.141 118.756L124.287 117.695C124.178 117.648 124.014 117.611 123.795 117.584C123.58 117.557 123.373 117.543 123.174 117.543ZM128.125 121.041L130.451 124H131.828L128.869 120.303L131.436 117.66H130.117L128.037 119.746L127.328 120.508V115H126.238V124H127.328V121.809L128.125 121.041Z" fill="black"/>
<path d="M44.9766 116.438H44.0684V117.717H42.6816V118.415H44.0684V121.286C44.0684 121.612 44.1107 121.89 44.1953 122.121C44.2832 122.349 44.402 122.535 44.5518 122.678C44.7015 122.824 44.8773 122.932 45.0791 123C45.2842 123.065 45.5039 123.098 45.7383 123.098C45.8783 123.098 46.0182 123.091 46.1582 123.078C46.3014 123.065 46.4365 123.046 46.5635 123.02C46.6904 122.997 46.8076 122.969 46.915 122.937C47.0225 122.901 47.1136 122.86 47.1885 122.814L47.0615 122.175C47.0062 122.188 46.9346 122.204 46.8467 122.224C46.762 122.24 46.6709 122.256 46.5732 122.272C46.4723 122.289 46.3698 122.303 46.2656 122.316C46.1615 122.326 46.0605 122.331 45.9629 122.331C45.8294 122.331 45.7025 122.315 45.582 122.282C45.4648 122.25 45.3607 122.193 45.2695 122.111C45.1784 122.033 45.1068 121.927 45.0547 121.794C45.0026 121.66 44.9766 121.491 44.9766 121.286V118.415H46.9883V117.717H44.9766V116.438ZM48.9854 117.717V118.503H50.7822V122.219H48.9854V123H53.4092V122.219H51.6855V117.717H48.9854ZM50.665 116.33C50.665 116.477 50.709 116.599 50.7969 116.696C50.888 116.794 51.0247 116.843 51.207 116.843C51.3861 116.843 51.5212 116.794 51.6123 116.696C51.7035 116.599 51.749 116.477 51.749 116.33C51.749 116.249 51.736 116.174 51.71 116.105C51.6839 116.037 51.6449 115.98 51.5928 115.935C51.5505 115.892 51.4967 115.86 51.4316 115.837C51.3665 115.811 51.2917 115.798 51.207 115.798C51.1224 115.798 51.0459 115.811 50.9775 115.837C50.9124 115.86 50.8587 115.892 50.8164 115.935C50.7643 115.983 50.7253 116.042 50.6992 116.11C50.6764 116.179 50.665 116.252 50.665 116.33ZM55.2646 117.717H54.4541V123H55.3135V118.796C55.333 118.744 55.3574 118.695 55.3867 118.649C55.4193 118.604 55.4567 118.563 55.499 118.527C55.5544 118.482 55.6211 118.448 55.6992 118.425C55.7806 118.399 55.875 118.386 55.9824 118.386C56.0801 118.386 56.1647 118.399 56.2363 118.425C56.3112 118.448 56.373 118.485 56.4219 118.537C56.474 118.592 56.5114 118.662 56.5342 118.747C56.5602 118.832 56.5732 118.929 56.5732 119.04V123H57.4326V119.045C57.4326 119.025 57.4326 119.009 57.4326 118.996C57.4326 118.98 57.4326 118.964 57.4326 118.947C57.4424 118.866 57.4619 118.793 57.4912 118.728C57.5205 118.659 57.5612 118.599 57.6133 118.547C57.6654 118.498 57.7305 118.459 57.8086 118.43C57.8867 118.4 57.9795 118.386 58.0869 118.386C58.1878 118.386 58.2757 118.399 58.3506 118.425C58.4287 118.451 58.4938 118.49 58.5459 118.542C58.5947 118.597 58.6322 118.667 58.6582 118.752C58.6842 118.837 58.6973 118.934 58.6973 119.045V123H59.5566V119.055C59.5566 118.801 59.5273 118.581 59.4688 118.396C59.4102 118.207 59.3255 118.054 59.2148 117.937C59.1139 117.832 58.9902 117.754 58.8438 117.702C58.6973 117.647 58.5329 117.619 58.3506 117.619C58.2171 117.622 58.0934 117.64 57.9795 117.673C57.8688 117.705 57.7679 117.749 57.6768 117.805C57.6051 117.854 57.5384 117.91 57.4766 117.976C57.4147 118.041 57.361 118.111 57.3154 118.186C57.2796 118.104 57.2357 118.031 57.1836 117.966C57.1348 117.901 57.0794 117.845 57.0176 117.8C56.9329 117.741 56.8337 117.697 56.7197 117.668C56.609 117.635 56.4837 117.619 56.3438 117.619C56.0964 117.622 55.8848 117.676 55.709 117.78C55.5365 117.884 55.3965 118.029 55.2891 118.215L55.2646 117.717ZM63.1895 123.098C63.7038 123.098 64.1351 122.995 64.4834 122.79C64.835 122.582 65.0986 122.344 65.2744 122.077L64.7227 121.647C64.5566 121.862 64.3483 122.035 64.0977 122.165C63.847 122.295 63.5605 122.36 63.2383 122.36C62.9941 122.36 62.7712 122.315 62.5693 122.224C62.3675 122.132 62.195 122.007 62.0518 121.848C61.9118 121.698 61.8011 121.525 61.7197 121.33C61.6416 121.135 61.5911 120.909 61.5684 120.651V120.617H65.3428V120.212C65.3428 119.844 65.2956 119.502 65.2012 119.187C65.11 118.871 64.9701 118.596 64.7812 118.361C64.5924 118.13 64.3548 117.95 64.0684 117.819C63.7852 117.686 63.4531 117.619 63.0723 117.619C62.7695 117.619 62.4733 117.681 62.1836 117.805C61.8971 117.928 61.6416 118.106 61.417 118.337C61.1891 118.571 61.0068 118.858 60.8701 119.196C60.7334 119.532 60.665 119.912 60.665 120.339V120.544C60.665 120.912 60.7269 121.252 60.8506 121.564C60.9743 121.877 61.1468 122.147 61.3682 122.375C61.5895 122.603 61.8548 122.78 62.1641 122.907C62.4766 123.034 62.8184 123.098 63.1895 123.098ZM63.0723 118.361C63.3034 118.361 63.502 118.404 63.668 118.488C63.8372 118.573 63.9772 118.684 64.0879 118.82C64.1986 118.957 64.2848 119.12 64.3467 119.309C64.4085 119.494 64.4395 119.668 64.4395 119.831V119.875H61.5977C61.6335 119.631 61.6953 119.416 61.7832 119.23C61.8743 119.042 61.985 118.882 62.1152 118.752C62.2454 118.625 62.3919 118.529 62.5547 118.464C62.7174 118.396 62.89 118.361 63.0723 118.361Z" fill="black"/>
<path d="M376.3 231.619C375.916 231.619 375.572 231.704 375.27 231.873C374.97 232.039 374.713 232.267 374.498 232.557L374.493 232.425L374.454 231.717H373.595V237H374.503V233.611C374.562 233.449 374.635 233.302 374.723 233.172C374.814 233.038 374.92 232.926 375.04 232.835C375.174 232.731 375.33 232.653 375.509 232.601C375.688 232.545 375.888 232.518 376.109 232.518C376.282 232.518 376.446 232.527 376.603 232.547C376.762 232.563 376.93 232.591 377.105 232.63L377.228 231.746C377.136 231.707 377 231.676 376.817 231.653C376.638 231.631 376.466 231.619 376.3 231.619ZM382.315 237H383.258V236.922C383.199 236.775 383.154 236.604 383.121 236.409C383.089 236.211 383.072 236.023 383.072 235.848V233.392C383.072 233.095 383.019 232.837 382.911 232.615C382.804 232.394 382.657 232.208 382.472 232.059C382.283 231.912 382.06 231.803 381.803 231.731C381.546 231.657 381.267 231.619 380.968 231.619C380.639 231.619 380.344 231.665 380.084 231.756C379.827 231.847 379.609 231.966 379.43 232.112C379.247 232.262 379.107 232.43 379.01 232.615C378.915 232.801 378.867 232.99 378.863 233.182H379.771C379.771 233.071 379.798 232.965 379.85 232.864C379.905 232.76 379.981 232.671 380.079 232.596C380.177 232.521 380.296 232.461 380.436 232.415C380.579 232.369 380.74 232.347 380.919 232.347C381.111 232.347 381.284 232.371 381.437 232.42C381.593 232.469 381.725 232.537 381.832 232.625C381.939 232.716 382.022 232.825 382.081 232.952C382.14 233.079 382.169 233.222 382.169 233.382V233.797H381.183C380.815 233.797 380.481 233.833 380.182 233.904C379.885 233.976 379.632 234.083 379.42 234.227C379.208 234.373 379.044 234.555 378.927 234.773C378.813 234.992 378.756 235.245 378.756 235.535C378.756 235.757 378.798 235.963 378.883 236.155C378.971 236.344 379.094 236.507 379.254 236.644C379.41 236.784 379.601 236.894 379.825 236.976C380.053 237.057 380.307 237.098 380.587 237.098C380.759 237.098 380.922 237.08 381.075 237.044C381.228 237.008 381.373 236.959 381.51 236.897C381.643 236.836 381.765 236.764 381.876 236.683C381.99 236.601 382.092 236.515 382.184 236.424C382.193 236.535 382.208 236.642 382.228 236.746C382.25 236.847 382.28 236.932 382.315 237ZM380.719 236.312C380.543 236.312 380.388 236.289 380.255 236.243C380.121 236.198 380.011 236.134 379.923 236.053C379.835 235.975 379.768 235.88 379.723 235.77C379.68 235.659 379.659 235.538 379.659 235.408C379.659 235.271 379.684 235.149 379.732 235.042C379.785 234.935 379.859 234.842 379.957 234.764C380.094 234.653 380.278 234.572 380.509 234.52C380.743 234.464 381.017 234.437 381.329 234.437H382.169V235.506C382.117 235.61 382.045 235.711 381.954 235.809C381.863 235.903 381.756 235.988 381.632 236.062C381.505 236.137 381.365 236.198 381.212 236.243C381.059 236.289 380.895 236.312 380.719 236.312ZM384.85 237H385.753V233.211C385.815 233.097 385.886 232.993 385.968 232.898C386.052 232.804 386.144 232.721 386.241 232.649C386.362 232.568 386.493 232.505 386.637 232.459C386.78 232.41 386.935 232.386 387.101 232.386C387.293 232.386 387.462 232.409 387.608 232.454C387.758 232.5 387.885 232.573 387.989 232.674C388.09 232.775 388.167 232.907 388.219 233.069C388.271 233.232 388.297 233.431 388.297 233.665V237H389.2V233.646C389.2 233.294 389.156 232.991 389.068 232.737C388.984 232.48 388.862 232.269 388.702 232.103C388.543 231.937 388.349 231.814 388.121 231.736C387.896 231.658 387.646 231.619 387.369 231.619C387.164 231.622 386.969 231.653 386.783 231.712C386.601 231.767 386.432 231.847 386.275 231.951C386.171 232.02 386.072 232.101 385.978 232.195C385.886 232.286 385.802 232.387 385.724 232.498L385.66 231.717H384.85V237ZM390.685 234.314V234.417C390.685 234.795 390.735 235.148 390.836 235.477C390.937 235.802 391.078 236.085 391.261 236.326C391.443 236.567 391.663 236.756 391.92 236.893C392.18 237.029 392.47 237.098 392.789 237.098C393.115 237.098 393.399 237.042 393.644 236.932C393.888 236.821 394.098 236.658 394.273 236.443L394.312 237H395.143V229.5H394.239V232.239C394.067 232.037 393.862 231.884 393.624 231.78C393.39 231.673 393.115 231.619 392.799 231.619C392.477 231.619 392.185 231.686 391.925 231.819C391.664 231.953 391.443 232.138 391.261 232.376C391.075 232.614 390.932 232.898 390.831 233.23C390.733 233.559 390.685 233.921 390.685 234.314ZM391.588 234.417V234.314C391.588 234.057 391.616 233.813 391.671 233.582C391.726 233.348 391.812 233.141 391.93 232.962C392.044 232.786 392.19 232.646 392.369 232.542C392.551 232.438 392.77 232.386 393.023 232.386C393.32 232.386 393.567 232.456 393.766 232.596C393.964 232.732 394.122 232.908 394.239 233.123V235.574C394.122 235.805 393.964 235.989 393.766 236.126C393.567 236.263 393.316 236.331 393.014 236.331C392.763 236.331 392.548 236.281 392.369 236.18C392.19 236.076 392.044 235.936 391.93 235.76C391.812 235.584 391.726 235.381 391.671 235.149C391.616 234.918 391.588 234.674 391.588 234.417Z" fill="black"/>
<path d="M310.331 235.599C310.331 235.683 310.315 235.763 310.282 235.838C310.25 235.913 310.202 235.981 310.141 236.043C310.04 236.144 309.9 236.224 309.721 236.282C309.542 236.338 309.332 236.365 309.091 236.365C308.938 236.365 308.783 236.349 308.627 236.316C308.471 236.284 308.329 236.229 308.202 236.15C308.072 236.072 307.963 235.97 307.875 235.843C307.79 235.716 307.742 235.56 307.729 235.374H306.825C306.825 235.599 306.876 235.815 306.977 236.023C307.081 236.232 307.23 236.414 307.426 236.57C307.618 236.73 307.854 236.858 308.134 236.956C308.414 237.05 308.733 237.098 309.091 237.098C309.403 237.098 309.691 237.06 309.955 236.985C310.219 236.91 310.445 236.805 310.634 236.668C310.823 236.531 310.969 236.367 311.073 236.175C311.181 235.983 311.234 235.77 311.234 235.535C311.234 235.317 311.187 235.125 311.093 234.959C311.002 234.793 310.868 234.646 310.692 234.52C310.517 234.396 310.3 234.29 310.043 234.202C309.786 234.111 309.494 234.031 309.169 233.963C308.922 233.914 308.716 233.864 308.554 233.812C308.394 233.759 308.267 233.701 308.173 233.636C308.075 233.571 308.007 233.497 307.968 233.416C307.929 233.335 307.909 233.242 307.909 233.138C307.909 233.037 307.934 232.939 307.982 232.845C308.031 232.75 308.104 232.667 308.202 232.596C308.297 232.524 308.415 232.467 308.559 232.425C308.705 232.382 308.874 232.361 309.066 232.361C309.252 232.361 309.418 232.387 309.564 232.439C309.714 232.492 309.841 232.56 309.945 232.645C310.049 232.729 310.131 232.827 310.189 232.938C310.248 233.045 310.277 233.156 310.277 233.27H311.181C311.181 233.038 311.13 232.824 311.029 232.625C310.932 232.423 310.792 232.247 310.609 232.098C310.427 231.948 310.206 231.831 309.945 231.746C309.685 231.661 309.392 231.619 309.066 231.619C308.764 231.619 308.485 231.66 308.231 231.741C307.981 231.823 307.764 231.933 307.582 232.073C307.4 232.213 307.258 232.378 307.157 232.566C307.056 232.752 307.006 232.952 307.006 233.167C307.006 233.385 307.055 233.577 307.152 233.743C307.25 233.906 307.388 234.048 307.567 234.168C307.743 234.292 307.955 234.397 308.202 234.485C308.453 234.573 308.729 234.648 309.032 234.71C309.28 234.759 309.486 234.814 309.652 234.876C309.818 234.935 309.952 235 310.053 235.071C310.154 235.143 310.225 235.223 310.268 235.311C310.31 235.395 310.331 235.491 310.331 235.599ZM315.16 237.098C315.674 237.098 316.106 236.995 316.454 236.79C316.806 236.582 317.069 236.344 317.245 236.077L316.693 235.647C316.527 235.862 316.319 236.035 316.068 236.165C315.818 236.295 315.531 236.36 315.209 236.36C314.965 236.36 314.742 236.315 314.54 236.224C314.338 236.132 314.166 236.007 314.022 235.848C313.882 235.698 313.772 235.525 313.69 235.33C313.612 235.135 313.562 234.909 313.539 234.651V234.617H317.313V234.212C317.313 233.844 317.266 233.502 317.172 233.187C317.081 232.871 316.941 232.596 316.752 232.361C316.563 232.13 316.326 231.95 316.039 231.819C315.756 231.686 315.424 231.619 315.043 231.619C314.74 231.619 314.444 231.681 314.154 231.805C313.868 231.928 313.612 232.106 313.388 232.337C313.16 232.571 312.978 232.858 312.841 233.196C312.704 233.532 312.636 233.912 312.636 234.339V234.544C312.636 234.912 312.698 235.252 312.821 235.564C312.945 235.877 313.118 236.147 313.339 236.375C313.56 236.603 313.826 236.78 314.135 236.907C314.447 237.034 314.789 237.098 315.16 237.098ZM315.043 232.361C315.274 232.361 315.473 232.404 315.639 232.488C315.808 232.573 315.948 232.684 316.059 232.82C316.169 232.957 316.256 233.12 316.317 233.309C316.379 233.494 316.41 233.668 316.41 233.831V233.875H313.568C313.604 233.631 313.666 233.416 313.754 233.23C313.845 233.042 313.956 232.882 314.086 232.752C314.216 232.625 314.363 232.529 314.525 232.464C314.688 232.396 314.861 232.361 315.043 232.361ZM321.083 236.365C320.8 236.365 320.562 236.31 320.37 236.199C320.181 236.085 320.03 235.937 319.916 235.755C319.799 235.576 319.714 235.374 319.662 235.149C319.613 234.922 319.589 234.692 319.589 234.461V234.256C319.589 234.028 319.613 233.802 319.662 233.577C319.714 233.353 319.799 233.149 319.916 232.967C320.033 232.788 320.186 232.643 320.375 232.532C320.567 232.418 320.803 232.361 321.083 232.361C321.265 232.361 321.435 232.392 321.591 232.454C321.75 232.516 321.887 232.601 322.001 232.708C322.115 232.815 322.204 232.941 322.27 233.084C322.338 233.224 322.374 233.374 322.377 233.533H323.231C323.231 233.266 323.178 233.016 323.07 232.781C322.963 232.547 322.815 232.343 322.626 232.171C322.434 232.002 322.206 231.868 321.942 231.771C321.682 231.67 321.396 231.619 321.083 231.619C320.683 231.619 320.333 231.691 320.033 231.834C319.734 231.977 319.485 232.169 319.286 232.41C319.084 232.654 318.933 232.936 318.832 233.255C318.731 233.574 318.681 233.908 318.681 234.256V234.461C318.681 234.812 318.731 235.148 318.832 235.467C318.933 235.783 319.084 236.061 319.286 236.302C319.485 236.546 319.734 236.74 320.033 236.883C320.333 237.026 320.683 237.098 321.083 237.098C321.363 237.098 321.632 237.05 321.889 236.956C322.146 236.858 322.374 236.728 322.572 236.565C322.771 236.406 322.929 236.22 323.046 236.009C323.166 235.794 323.228 235.569 323.231 235.335H322.377C322.374 235.481 322.335 235.618 322.26 235.745C322.188 235.869 322.092 235.976 321.972 236.067C321.851 236.162 321.713 236.235 321.557 236.287C321.404 236.339 321.246 236.365 321.083 236.365ZM328.3 231.619C327.916 231.619 327.572 231.704 327.27 231.873C326.97 232.039 326.713 232.267 326.498 232.557L326.493 232.425L326.454 231.717H325.595V237H326.503V233.611C326.562 233.449 326.635 233.302 326.723 233.172C326.814 233.038 326.92 232.926 327.04 232.835C327.174 232.731 327.33 232.653 327.509 232.601C327.688 232.545 327.888 232.518 328.109 232.518C328.282 232.518 328.446 232.527 328.603 232.547C328.762 232.563 328.93 232.591 329.105 232.63L329.228 231.746C329.136 231.707 329 231.676 328.817 231.653C328.638 231.631 328.466 231.619 328.3 231.619ZM333.178 237.098C333.692 237.098 334.123 236.995 334.472 236.79C334.823 236.582 335.087 236.344 335.263 236.077L334.711 235.647C334.545 235.862 334.337 236.035 334.086 236.165C333.835 236.295 333.549 236.36 333.227 236.36C332.982 236.36 332.759 236.315 332.558 236.224C332.356 236.132 332.183 236.007 332.04 235.848C331.9 235.698 331.789 235.525 331.708 235.33C331.63 235.135 331.579 234.909 331.557 234.651V234.617H335.331V234.212C335.331 233.844 335.284 233.502 335.189 233.187C335.098 232.871 334.958 232.596 334.77 232.361C334.581 232.13 334.343 231.95 334.057 231.819C333.773 231.686 333.441 231.619 333.061 231.619C332.758 231.619 332.462 231.681 332.172 231.805C331.885 231.928 331.63 232.106 331.405 232.337C331.177 232.571 330.995 232.858 330.858 233.196C330.722 233.532 330.653 233.912 330.653 234.339V234.544C330.653 234.912 330.715 235.252 330.839 235.564C330.963 235.877 331.135 236.147 331.356 236.375C331.578 236.603 331.843 236.78 332.152 236.907C332.465 237.034 332.807 237.098 333.178 237.098ZM333.061 232.361C333.292 232.361 333.49 232.404 333.656 232.488C333.826 232.573 333.965 232.684 334.076 232.82C334.187 232.957 334.273 233.12 334.335 233.309C334.397 233.494 334.428 233.668 334.428 233.831V233.875H331.586C331.622 233.631 331.684 233.416 331.771 233.23C331.863 233.042 331.973 232.882 332.104 232.752C332.234 232.625 332.38 232.529 332.543 232.464C332.706 232.396 332.878 232.361 333.061 232.361ZM338.988 230.438H338.08V231.717H336.693V232.415H338.08V235.286C338.08 235.612 338.122 235.89 338.207 236.121C338.295 236.349 338.414 236.535 338.563 236.678C338.713 236.824 338.889 236.932 339.091 237C339.296 237.065 339.516 237.098 339.75 237.098C339.89 237.098 340.03 237.091 340.17 237.078C340.313 237.065 340.448 237.046 340.575 237.02C340.702 236.997 340.819 236.969 340.927 236.937C341.034 236.901 341.125 236.86 341.2 236.814L341.073 236.175C341.018 236.188 340.946 236.204 340.858 236.224C340.774 236.24 340.683 236.256 340.585 236.272C340.484 236.289 340.382 236.303 340.277 236.316C340.173 236.326 340.072 236.331 339.975 236.331C339.841 236.331 339.714 236.315 339.594 236.282C339.477 236.25 339.372 236.193 339.281 236.111C339.19 236.033 339.118 235.927 339.066 235.794C339.014 235.66 338.988 235.491 338.988 235.286V232.415H341V231.717H338.988V230.438ZM347.24 237.737V237H342.763V237.737H347.24ZM350.443 234.534L352.382 237H353.529L351.063 233.919L353.202 231.717H352.104L350.37 233.455L349.779 234.09V229.5H348.871V237H349.779V235.174L350.443 234.534ZM357.201 237.098C357.715 237.098 358.147 236.995 358.495 236.79C358.847 236.582 359.11 236.344 359.286 236.077L358.734 235.647C358.568 235.862 358.36 236.035 358.109 236.165C357.859 236.295 357.572 236.36 357.25 236.36C357.006 236.36 356.783 236.315 356.581 236.224C356.379 236.132 356.207 236.007 356.063 235.848C355.924 235.698 355.813 235.525 355.731 235.33C355.653 235.135 355.603 234.909 355.58 234.651V234.617H359.354V234.212C359.354 233.844 359.307 233.502 359.213 233.187C359.122 232.871 358.982 232.596 358.793 232.361C358.604 232.13 358.367 231.95 358.08 231.819C357.797 231.686 357.465 231.619 357.084 231.619C356.781 231.619 356.485 231.681 356.195 231.805C355.909 231.928 355.653 232.106 355.429 232.337C355.201 232.571 355.019 232.858 354.882 233.196C354.745 233.532 354.677 233.912 354.677 234.339V234.544C354.677 234.912 354.739 235.252 354.862 235.564C354.986 235.877 355.159 236.147 355.38 236.375C355.601 236.603 355.867 236.78 356.176 236.907C356.488 237.034 356.83 237.098 357.201 237.098ZM357.084 232.361C357.315 232.361 357.514 232.404 357.68 232.488C357.849 232.573 357.989 232.684 358.1 232.82C358.21 232.957 358.297 233.12 358.358 233.309C358.42 233.494 358.451 233.668 358.451 233.831V233.875H355.609C355.645 233.631 355.707 233.416 355.795 233.23C355.886 233.042 355.997 232.882 356.127 232.752C356.257 232.625 356.404 232.529 356.566 232.464C356.729 232.396 356.902 232.361 357.084 232.361ZM361.298 239.134C361.535 239.134 361.745 239.09 361.928 239.002C362.11 238.914 362.27 238.805 362.406 238.675C362.543 238.545 362.659 238.403 362.753 238.25C362.851 238.097 362.93 237.952 362.992 237.815L365.673 231.717H364.662L363.3 235.145L363.051 235.765L362.816 235.125L361.366 231.717H360.355L362.631 236.751L362.27 237.454C362.237 237.519 362.191 237.602 362.133 237.703C362.077 237.804 362.011 237.902 361.933 237.996C361.851 238.09 361.758 238.172 361.654 238.24C361.553 238.309 361.441 238.343 361.317 238.343C361.272 238.343 361.208 238.34 361.127 238.333C361.049 238.33 360.969 238.325 360.888 238.318L360.741 239.056C360.8 239.069 360.886 239.085 361 239.104C361.114 239.124 361.213 239.134 361.298 239.134Z" fill="black"/>
<rect x="261.5" y="20.5" width="80" height="159" fill="#C4C4C4" stroke="black"/>
<rect x="269.5" y="35.5" width="64" height="12" fill="#E4E4E4" stroke="black"/>
<path d="M270.091 33.9219H270.724V32.1445C270.769 32.1947 270.818 32.2414 270.871 32.2847C270.923 32.3257 270.979 32.3633 271.038 32.3975C271.136 32.4521 271.245 32.4943 271.366 32.5239C271.489 32.5535 271.621 32.5684 271.763 32.5684C271.995 32.5684 272.201 32.5205 272.381 32.4248C272.564 32.3291 272.716 32.1969 272.839 32.0283C272.962 31.8597 273.056 31.6615 273.12 31.4336C273.183 31.2035 273.215 30.9562 273.215 30.6919V30.6201C273.215 30.3444 273.183 30.0915 273.12 29.8613C273.056 29.6289 272.962 29.4295 272.839 29.2632C272.716 29.0968 272.564 28.967 272.381 28.8735C272.199 28.7801 271.989 28.7334 271.752 28.7334C271.618 28.7334 271.492 28.7482 271.373 28.7778C271.257 28.8052 271.151 28.8462 271.055 28.9009C270.987 28.9373 270.923 28.9818 270.864 29.0342C270.805 29.0843 270.75 29.1413 270.7 29.2051L270.669 28.8018H270.091V33.9219ZM272.583 30.6201V30.6919C272.583 30.8719 272.562 31.0439 272.521 31.208C272.483 31.3721 272.422 31.5168 272.34 31.6421C272.258 31.7674 272.153 31.8677 272.026 31.9429C271.898 32.0158 271.747 32.0522 271.571 32.0522C271.462 32.0522 271.362 32.0386 271.271 32.0112C271.182 31.9839 271.101 31.9463 271.028 31.8984C270.964 31.8574 270.907 31.8073 270.857 31.748C270.807 31.6888 270.762 31.625 270.724 31.5566V29.7759C270.767 29.6984 270.817 29.6278 270.874 29.564C270.931 29.5002 270.996 29.4466 271.069 29.4033C271.135 29.36 271.209 29.327 271.291 29.3042C271.375 29.2814 271.466 29.27 271.564 29.27C271.742 29.27 271.895 29.3065 272.022 29.3794C272.15 29.4523 272.256 29.5503 272.34 29.6733C272.422 29.7987 272.483 29.9434 272.521 30.1074C272.562 30.2692 272.583 30.4401 272.583 30.6201ZM276.722 28.7334C276.453 28.7334 276.213 28.7926 276.001 28.9111C275.791 29.0273 275.611 29.1869 275.461 29.3897L275.458 29.2974L275.43 28.8018H274.829V32.5H275.464V30.1279C275.505 30.014 275.557 29.9115 275.618 29.8203C275.682 29.7269 275.756 29.6483 275.84 29.5845C275.934 29.5116 276.043 29.4569 276.168 29.4204C276.294 29.3817 276.434 29.3623 276.589 29.3623C276.71 29.3623 276.825 29.3691 276.934 29.3828C277.046 29.3942 277.163 29.4136 277.286 29.4409L277.372 28.8223C277.308 28.7949 277.212 28.7733 277.084 28.7573C276.959 28.7414 276.838 28.7334 276.722 28.7334ZM280.137 32.5684C280.497 32.5684 280.799 32.4966 281.042 32.353C281.289 32.2072 281.473 32.0409 281.596 31.854L281.21 31.5532C281.094 31.7036 280.948 31.8244 280.772 31.9155C280.597 32.0067 280.396 32.0522 280.171 32.0522C280 32.0522 279.844 32.0203 279.703 31.9565C279.561 31.8927 279.441 31.805 279.34 31.6934C279.242 31.5885 279.165 31.4678 279.108 31.3311C279.053 31.1943 279.018 31.036 279.002 30.856V30.832H281.644V30.5483C281.644 30.2909 281.611 30.0516 281.545 29.8306C281.481 29.6095 281.383 29.417 281.251 29.2529C281.119 29.0911 280.952 28.9647 280.752 28.8735C280.554 28.7801 280.321 28.7334 280.055 28.7334C279.843 28.7334 279.635 28.7767 279.433 28.8633C279.232 28.9499 279.053 29.0741 278.896 29.2358C278.736 29.3999 278.609 29.6004 278.513 29.8374C278.417 30.0721 278.37 30.3387 278.37 30.6372V30.7808C278.37 31.0383 278.413 31.2764 278.5 31.4951C278.586 31.7139 278.707 31.903 278.862 32.0625C279.017 32.222 279.202 32.3462 279.419 32.4351C279.638 32.5239 279.877 32.5684 280.137 32.5684ZM280.055 29.2529C280.216 29.2529 280.355 29.2826 280.472 29.3418C280.59 29.401 280.688 29.4785 280.766 29.5742C280.843 29.6699 280.903 29.7839 280.947 29.916C280.99 30.0459 281.012 30.1678 281.012 30.2817V30.3125H279.022C279.048 30.1416 279.091 29.9912 279.152 29.8613C279.216 29.7292 279.294 29.6175 279.385 29.5264C279.476 29.4375 279.578 29.3703 279.692 29.3247C279.806 29.2769 279.927 29.2529 280.055 29.2529ZM283.968 32.5H284.45L285.958 28.8018H285.312L284.276 31.5908L284.214 31.8198L284.156 31.5908L283.097 28.8018H282.447L283.968 32.5Z" fill="black"/>
<rect x="269.5" y="91.5" width="64" height="81" fill="#E4E4E4" stroke="black"/>
<path d="M269.975 86.6201V86.6919C269.975 86.9562 270.01 87.2034 270.081 87.4336C270.152 87.6615 270.251 87.8597 270.378 88.0283C270.506 88.1969 270.66 88.3291 270.84 88.4248C271.022 88.5205 271.225 88.5684 271.448 88.5684C271.676 88.5684 271.875 88.5296 272.046 88.4521C272.217 88.3747 272.364 88.2607 272.487 88.1103L272.515 88.5H273.096V83.25H272.463V85.1675C272.343 85.0262 272.199 84.9191 272.033 84.8462C271.869 84.771 271.676 84.7334 271.455 84.7334C271.229 84.7334 271.026 84.7801 270.843 84.8735C270.661 84.967 270.506 85.0968 270.378 85.2632C270.249 85.4295 270.148 85.6289 270.078 85.8613C270.009 86.0915 269.975 86.3444 269.975 86.6201ZM270.607 86.6919V86.6201C270.607 86.4401 270.627 86.2692 270.666 86.1074C270.704 85.9434 270.765 85.7987 270.847 85.6733C270.926 85.5503 271.029 85.4523 271.154 85.3794C271.282 85.3065 271.435 85.27 271.612 85.27C271.82 85.27 271.993 85.319 272.132 85.417C272.271 85.5127 272.381 85.6357 272.463 85.7861V87.5019C272.381 87.6637 272.271 87.7925 272.132 87.8882C271.993 87.9839 271.817 88.0317 271.605 88.0317C271.43 88.0317 271.28 87.9964 271.154 87.9258C271.029 87.8529 270.926 87.7549 270.847 87.6318C270.765 87.5088 270.704 87.3664 270.666 87.2046C270.627 87.0428 270.607 86.8719 270.607 86.6919ZM276.729 88.5H277.389V88.4453C277.348 88.3428 277.316 88.2231 277.293 88.0864C277.27 87.9474 277.259 87.8164 277.259 87.6934V85.9741C277.259 85.7668 277.221 85.5856 277.146 85.4307C277.071 85.2757 276.968 85.1458 276.838 85.041C276.706 84.9385 276.55 84.8621 276.37 84.812C276.19 84.7596 275.995 84.7334 275.786 84.7334C275.556 84.7334 275.349 84.7653 275.167 84.8291C274.987 84.8929 274.834 84.9761 274.709 85.0786C274.581 85.1834 274.483 85.3008 274.415 85.4307C274.349 85.5605 274.315 85.6927 274.312 85.8271H274.948C274.948 85.7497 274.966 85.6756 275.003 85.605C275.042 85.5321 275.095 85.4694 275.164 85.417C275.232 85.3646 275.315 85.3224 275.413 85.2905C275.513 85.2586 275.626 85.2427 275.751 85.2427C275.886 85.2427 276.007 85.2598 276.114 85.2939C276.223 85.3281 276.315 85.376 276.391 85.4375C276.466 85.5013 276.524 85.5776 276.565 85.6665C276.606 85.7554 276.626 85.8556 276.626 85.9673V86.2578H275.936C275.679 86.2578 275.445 86.2829 275.235 86.333C275.028 86.3831 274.85 86.4583 274.702 86.5586C274.554 86.6611 274.439 86.7887 274.357 86.9414C274.277 87.0941 274.237 87.2718 274.237 87.4746C274.237 87.6295 274.267 87.7742 274.326 87.9087C274.388 88.0408 274.474 88.1548 274.586 88.2505C274.695 88.3485 274.829 88.4259 274.986 88.4829C275.145 88.5399 275.323 88.5684 275.519 88.5684C275.64 88.5684 275.754 88.5558 275.861 88.5308C275.968 88.5057 276.069 88.4715 276.165 88.4282C276.258 88.3849 276.344 88.3348 276.421 88.2778C276.501 88.2209 276.573 88.1605 276.637 88.0967C276.644 88.1741 276.654 88.2493 276.667 88.3223C276.683 88.3929 276.704 88.4521 276.729 88.5ZM275.611 88.0181C275.488 88.0181 275.38 88.0021 275.287 87.9702C275.193 87.9383 275.116 87.8939 275.054 87.8369C274.993 87.7822 274.946 87.7161 274.914 87.6387C274.884 87.5612 274.87 87.4769 274.87 87.3857C274.87 87.29 274.887 87.2046 274.921 87.1294C274.957 87.0542 275.01 86.9893 275.078 86.9346C275.174 86.8571 275.303 86.8001 275.464 86.7637C275.628 86.7249 275.82 86.7056 276.039 86.7056H276.626V87.4541C276.59 87.527 276.54 87.5976 276.476 87.666C276.412 87.7321 276.337 87.7913 276.25 87.8437C276.162 87.8962 276.064 87.9383 275.957 87.9702C275.849 88.0021 275.734 88.0181 275.611 88.0181ZM280 83.9062H279.364V84.8018H278.394V85.2905H279.364V87.3003C279.364 87.5282 279.394 87.723 279.453 87.8848C279.515 88.0443 279.598 88.1741 279.703 88.2744C279.807 88.3769 279.931 88.4521 280.072 88.5C280.215 88.5456 280.369 88.5684 280.533 88.5684C280.631 88.5684 280.729 88.5638 280.827 88.5547C280.927 88.5456 281.022 88.5319 281.111 88.5137C281.2 88.4977 281.282 88.4783 281.357 88.4556C281.432 88.4305 281.496 88.402 281.548 88.3701L281.459 87.9224C281.421 87.9315 281.371 87.9429 281.309 87.9565C281.25 87.9679 281.186 87.9793 281.118 87.9907C281.047 88.0021 280.975 88.0124 280.902 88.0215C280.829 88.0283 280.759 88.0317 280.69 88.0317C280.597 88.0317 280.508 88.0203 280.424 87.9976C280.342 87.9748 280.269 87.9349 280.205 87.8779C280.141 87.8232 280.091 87.7492 280.055 87.6558C280.018 87.5623 280 87.4438 280 87.3003V85.2905H281.408V84.8018H280V83.9062ZM285.137 88.5H285.797V88.4453C285.756 88.3428 285.724 88.2231 285.701 88.0864C285.678 87.9474 285.667 87.8164 285.667 87.6934V85.9741C285.667 85.7668 285.629 85.5856 285.554 85.4307C285.479 85.2757 285.376 85.1458 285.247 85.041C285.114 84.9385 284.958 84.8621 284.778 84.812C284.598 84.7596 284.403 84.7334 284.194 84.7334C283.964 84.7334 283.757 84.7653 283.575 84.8291C283.395 84.8929 283.243 84.9761 283.117 85.0786C282.99 85.1834 282.892 85.3008 282.823 85.4307C282.757 85.5605 282.723 85.6927 282.721 85.8271H283.356C283.356 85.7497 283.375 85.6756 283.411 85.605C283.45 85.5321 283.503 85.4694 283.572 85.417C283.64 85.3646 283.723 85.3224 283.821 85.2905C283.922 85.2586 284.034 85.2427 284.16 85.2427C284.294 85.2427 284.415 85.2598 284.522 85.2939C284.631 85.3281 284.724 85.376 284.799 85.4375C284.874 85.5013 284.932 85.5776 284.973 85.6665C285.014 85.7554 285.035 85.8556 285.035 85.9673V86.2578H284.344C284.087 86.2578 283.853 86.2829 283.644 86.333C283.436 86.3831 283.258 86.4583 283.11 86.5586C282.962 86.6611 282.847 86.7887 282.765 86.9414C282.685 87.0941 282.646 87.2718 282.646 87.4746C282.646 87.6295 282.675 87.7742 282.734 87.9087C282.796 88.0408 282.882 88.1548 282.994 88.2505C283.104 88.3485 283.237 88.4259 283.394 88.4829C283.554 88.5399 283.731 88.5684 283.927 88.5684C284.048 88.5684 284.162 88.5558 284.269 88.5308C284.376 88.5057 284.478 88.4715 284.573 88.4282C284.667 88.3849 284.752 88.3348 284.83 88.2778C284.909 88.2209 284.981 88.1605 285.045 88.0967C285.052 88.1741 285.062 88.2493 285.076 88.3223C285.092 88.3929 285.112 88.4521 285.137 88.5ZM284.02 88.0181C283.896 88.0181 283.788 88.0021 283.695 87.9702C283.601 87.9383 283.524 87.8939 283.462 87.8369C283.401 87.7822 283.354 87.7161 283.322 87.6387C283.293 87.5612 283.278 87.4769 283.278 87.3857C283.278 87.29 283.295 87.2046 283.329 87.1294C283.366 87.0542 283.418 86.9893 283.486 86.9346C283.582 86.8571 283.711 86.8001 283.873 86.7637C284.037 86.7249 284.228 86.7056 284.447 86.7056H285.035V87.4541C284.998 87.527 284.948 87.5976 284.884 87.666C284.82 87.7321 284.745 87.7913 284.659 87.8437C284.57 87.8962 284.472 87.9383 284.365 87.9702C284.258 88.0021 284.143 88.0181 284.02 88.0181Z" fill="black"/>
<rect x="269.5" y="63.5" width="64" height="12" fill="#E4E4E4" stroke="black"/>
<rect x="269.5" y="63.5" width="16" height="12" fill="#E4E4E4" stroke="black"/>
<path d="M270.45 60.5H270.949L271.52 58.2339L271.612 57.6597L271.708 58.2339L272.286 60.5H272.785L273.571 56.8018H273.01L272.6 59.1602L272.508 59.7412L272.409 59.1602L271.821 56.8018H271.414L270.823 59.1602L270.73 59.6899L270.655 59.1602L270.225 56.8018H269.664L270.45 60.5ZM274.121 58.6167V58.6919C274.121 58.9585 274.16 59.2057 274.237 59.4336C274.315 59.6615 274.426 59.8597 274.572 60.0283C274.716 60.1969 274.891 60.3291 275.099 60.4248C275.308 60.5205 275.544 60.5684 275.806 60.5684C276.066 60.5684 276.299 60.5205 276.507 60.4248C276.714 60.3291 276.891 60.1969 277.037 60.0283C277.18 59.8597 277.291 59.6615 277.368 59.4336C277.446 59.2057 277.484 58.9585 277.484 58.6919V58.6167C277.484 58.3501 277.446 58.1029 277.368 57.875C277.291 57.6449 277.18 57.4455 277.037 57.2769C276.891 57.1082 276.713 56.9761 276.503 56.8804C276.296 56.7824 276.061 56.7334 275.799 56.7334C275.54 56.7334 275.306 56.7824 275.099 56.8804C274.891 56.9761 274.716 57.1082 274.572 57.2769C274.426 57.4455 274.315 57.6449 274.237 57.875C274.16 58.1029 274.121 58.3501 274.121 58.6167ZM274.753 58.6919V58.6167C274.753 58.4367 274.775 58.2647 274.818 58.1006C274.862 57.9342 274.928 57.7884 275.017 57.6631C275.103 57.5378 275.211 57.4386 275.341 57.3657C275.471 57.2905 275.624 57.2529 275.799 57.2529C275.975 57.2529 276.127 57.2905 276.257 57.3657C276.389 57.4386 276.5 57.5378 276.589 57.6631C276.675 57.7884 276.74 57.9342 276.784 58.1006C276.829 58.2647 276.852 58.4367 276.852 58.6167V58.6919C276.852 58.8742 276.83 59.0485 276.787 59.2148C276.744 59.3789 276.679 59.5236 276.592 59.6489C276.503 59.7743 276.393 59.8734 276.261 59.9463C276.131 60.0192 275.979 60.0557 275.806 60.0557C275.631 60.0557 275.477 60.0192 275.345 59.9463C275.213 59.8734 275.103 59.7743 275.017 59.6489C274.928 59.5236 274.862 59.3789 274.818 59.2148C274.775 59.0485 274.753 58.8742 274.753 58.6919ZM280.926 56.7334C280.657 56.7334 280.417 56.7926 280.205 56.9111C279.995 57.0273 279.815 57.1869 279.665 57.3897L279.662 57.2974L279.634 56.8018H279.033V60.5H279.668V58.1279C279.709 58.014 279.761 57.9115 279.822 57.8203C279.886 57.7269 279.96 57.6483 280.044 57.5845C280.138 57.5116 280.247 57.4569 280.373 57.4204C280.498 57.3817 280.638 57.3623 280.793 57.3623C280.914 57.3623 281.029 57.3691 281.138 57.3828C281.25 57.3942 281.367 57.4136 281.49 57.4409L281.576 56.8223C281.512 56.7949 281.416 56.7733 281.289 56.7573C281.163 56.7414 281.042 56.7334 280.926 56.7334ZM283.814 58.7739L285.171 60.5H285.975L284.249 58.3433L285.746 56.8018H284.977L283.763 58.0186L283.35 58.4629V55.25H282.714V60.5H283.35V59.2217L283.814 58.7739Z" fill="black"/>
<rect x="-0.5" y="0.5" width="39.5" height="79" transform="matrix(-1 0 0 1 419 20)" fill="#C4C4C4" stroke="black"/>
<rect width="32" height="6" transform="matrix(-1 0 0 1 415.75 27.75)" fill="#E4E4E4" stroke="black" stroke-width="0.5"/>
<rect width="32" height="40.5" transform="matrix(-1 0 0 1 415.75 55.75)" fill="#E4E4E4" stroke="black" stroke-width="0.5"/>
<rect width="32" height="6" transform="matrix(-1 0 0 1 415.75 41.75)" fill="#E4E4E4" stroke="black" stroke-width="0.5"/>
<rect width="8" height="6" transform="matrix(-1 0 0 1 391.75 41.75)" fill="#E4E4E4" stroke="black" stroke-width="0.5"/>
<path d="M261 63L251 57.2265V68.7735L261 63ZM166 64L252 64V62L166 62V64Z" fill="black"/>
<path d="M245 221L241.74 209.923L233.777 218.284L245 221ZM139.31 121.724L237.793 215.517L239.172 214.069L140.69 120.276L139.31 121.724Z" fill="black"/>
<path d="M379.354 41.3536C379.549 41.1583 379.549 40.8417 379.354 40.6464L376.172 37.4645C375.976 37.2692 375.66 37.2692 375.464 37.4645C375.269 37.6597 375.269 37.9763 375.464 38.1716L378.293 41L375.464 43.8284C375.269 44.0237 375.269 44.3403 375.464 44.5355C375.66 44.7308 375.976 44.7308 376.172 44.5355L379.354 41.3536ZM334 41.5H379V40.5H334V41.5Z" fill="black"/>
<path d="M252.103 229.905V224.5H250.477V238H252.103V231.092C252.22 230.904 252.352 230.734 252.498 230.582C252.65 230.424 252.814 230.286 252.99 230.169C253.213 230.017 253.456 229.899 253.72 229.817C253.983 229.735 254.262 229.694 254.555 229.694C254.912 229.688 255.229 229.738 255.504 229.844C255.779 229.943 256.008 230.096 256.189 230.301C256.359 230.488 256.488 230.726 256.576 231.013C256.664 231.294 256.708 231.622 256.708 231.997V238H258.334V232.015C258.334 231.376 258.255 230.825 258.097 230.362C257.944 229.894 257.725 229.507 257.438 229.202C257.15 228.897 256.802 228.675 256.392 228.534C255.987 228.388 255.536 228.314 255.038 228.314C254.657 228.32 254.297 228.376 253.957 228.481C253.623 228.587 253.315 228.742 253.034 228.947C252.858 229.07 252.691 229.214 252.533 229.378C252.375 229.536 252.231 229.712 252.103 229.905ZM267.536 238H269.232V237.859C269.127 237.596 269.045 237.288 268.986 236.937C268.928 236.579 268.898 236.242 268.898 235.926V231.505C268.898 230.972 268.802 230.506 268.608 230.107C268.415 229.709 268.151 229.375 267.817 229.105C267.478 228.842 267.076 228.646 266.613 228.517C266.15 228.382 265.649 228.314 265.11 228.314C264.519 228.314 263.988 228.396 263.52 228.561C263.057 228.725 262.664 228.938 262.342 229.202C262.014 229.472 261.762 229.773 261.586 230.107C261.416 230.441 261.328 230.781 261.322 231.127H262.957C262.957 230.928 263.004 230.737 263.098 230.556C263.197 230.368 263.335 230.207 263.511 230.072C263.687 229.938 263.9 229.829 264.152 229.747C264.41 229.665 264.7 229.624 265.022 229.624C265.368 229.624 265.679 229.668 265.954 229.756C266.235 229.844 266.473 229.967 266.666 230.125C266.859 230.289 267.009 230.485 267.114 230.714C267.22 230.942 267.272 231.2 267.272 231.487V232.234H265.497C264.835 232.234 264.234 232.299 263.695 232.428C263.162 232.557 262.705 232.75 262.324 233.008C261.943 233.271 261.647 233.6 261.437 233.992C261.231 234.385 261.129 234.842 261.129 235.363C261.129 235.762 261.205 236.134 261.357 236.479C261.516 236.819 261.738 237.112 262.025 237.358C262.307 237.61 262.649 237.81 263.054 237.956C263.464 238.103 263.921 238.176 264.425 238.176C264.735 238.176 265.028 238.144 265.304 238.079C265.579 238.015 265.84 237.927 266.086 237.815C266.326 237.704 266.546 237.575 266.745 237.429C266.95 237.282 267.135 237.127 267.299 236.963C267.316 237.162 267.343 237.355 267.378 237.543C267.419 237.725 267.472 237.877 267.536 238ZM264.662 236.761C264.346 236.761 264.067 236.72 263.827 236.638C263.587 236.556 263.388 236.441 263.229 236.295C263.071 236.154 262.951 235.984 262.869 235.785C262.793 235.586 262.755 235.369 262.755 235.135C262.755 234.889 262.799 234.669 262.887 234.476C262.98 234.282 263.115 234.115 263.291 233.975C263.537 233.775 263.868 233.629 264.284 233.535C264.706 233.436 265.198 233.386 265.761 233.386H267.272V235.311C267.179 235.498 267.05 235.68 266.886 235.855C266.722 236.025 266.528 236.178 266.306 236.312C266.077 236.447 265.825 236.556 265.55 236.638C265.274 236.72 264.979 236.761 264.662 236.761ZM278.417 235.478C278.417 235.63 278.388 235.773 278.329 235.908C278.271 236.043 278.186 236.166 278.074 236.277C277.893 236.459 277.641 236.603 277.318 236.708C276.996 236.808 276.618 236.857 276.185 236.857C275.909 236.857 275.631 236.828 275.35 236.77C275.068 236.711 274.813 236.611 274.585 236.471C274.351 236.33 274.154 236.146 273.996 235.917C273.844 235.688 273.756 235.407 273.732 235.073H272.106C272.106 235.478 272.197 235.867 272.379 236.242C272.566 236.617 272.836 236.945 273.188 237.227C273.533 237.514 273.958 237.745 274.462 237.921C274.966 238.091 275.54 238.176 276.185 238.176C276.747 238.176 277.266 238.108 277.74 237.974C278.215 237.839 278.622 237.648 278.962 237.402C279.302 237.156 279.565 236.86 279.753 236.515C279.946 236.169 280.043 235.785 280.043 235.363C280.043 234.971 279.958 234.625 279.788 234.326C279.624 234.027 279.384 233.764 279.067 233.535C278.751 233.312 278.361 233.122 277.898 232.964C277.436 232.8 276.911 232.656 276.325 232.533C275.88 232.445 275.511 232.354 275.218 232.261C274.931 232.167 274.702 232.062 274.532 231.944C274.356 231.827 274.233 231.695 274.163 231.549C274.093 231.402 274.058 231.235 274.058 231.048C274.058 230.866 274.102 230.69 274.189 230.521C274.277 230.351 274.409 230.201 274.585 230.072C274.755 229.943 274.969 229.841 275.227 229.765C275.49 229.688 275.795 229.65 276.141 229.65C276.475 229.65 276.773 229.697 277.037 229.791C277.307 229.885 277.535 230.008 277.723 230.16C277.91 230.312 278.057 230.488 278.162 230.688C278.268 230.881 278.32 231.08 278.32 231.285H279.946C279.946 230.869 279.855 230.482 279.674 230.125C279.498 229.762 279.246 229.445 278.918 229.176C278.59 228.906 278.191 228.695 277.723 228.543C277.254 228.391 276.727 228.314 276.141 228.314C275.596 228.314 275.095 228.388 274.638 228.534C274.187 228.681 273.797 228.88 273.469 229.132C273.141 229.384 272.886 229.68 272.704 230.02C272.522 230.354 272.432 230.714 272.432 231.101C272.432 231.493 272.52 231.839 272.695 232.138C272.871 232.431 273.12 232.686 273.442 232.902C273.759 233.125 274.14 233.315 274.585 233.474C275.036 233.632 275.534 233.767 276.079 233.878C276.524 233.966 276.896 234.065 277.195 234.177C277.494 234.282 277.734 234.399 277.916 234.528C278.098 234.657 278.227 234.801 278.303 234.959C278.379 235.111 278.417 235.284 278.417 235.478ZM284.534 229.905V224.5H282.908V238H284.534V231.092C284.651 230.904 284.783 230.734 284.93 230.582C285.082 230.424 285.246 230.286 285.422 230.169C285.645 230.017 285.888 229.899 286.151 229.817C286.415 229.735 286.693 229.694 286.986 229.694C287.344 229.688 287.66 229.738 287.936 229.844C288.211 229.943 288.439 230.096 288.621 230.301C288.791 230.488 288.92 230.726 289.008 231.013C289.096 231.294 289.14 231.622 289.14 231.997V238H290.766V232.015C290.766 231.376 290.687 230.825 290.528 230.362C290.376 229.894 290.156 229.507 289.869 229.202C289.582 228.897 289.233 228.675 288.823 228.534C288.419 228.388 287.968 228.314 287.47 228.314C287.089 228.32 286.729 228.376 286.389 228.481C286.055 228.587 285.747 228.742 285.466 228.947C285.29 229.07 285.123 229.214 284.965 229.378C284.807 229.536 284.663 229.712 284.534 229.905ZM295.327 232.806V232.894C295.327 233.731 295.392 234.52 295.521 235.258C295.655 235.996 295.834 236.679 296.057 237.306C296.273 237.938 296.525 238.513 296.812 239.028C297.105 239.55 297.413 240.013 297.735 240.417C298.052 240.827 298.371 241.173 298.693 241.454C299.021 241.741 299.332 241.967 299.625 242.131L299.968 241.138C299.728 240.944 299.487 240.71 299.247 240.435C299.013 240.165 298.784 239.854 298.562 239.503C298.345 239.134 298.137 238.715 297.938 238.246C297.738 237.783 297.562 237.279 297.41 236.734C297.27 236.195 297.158 235.606 297.076 234.968C296.994 234.329 296.953 233.644 296.953 232.911V232.788C296.953 232.026 296.997 231.314 297.085 230.652C297.173 229.99 297.296 229.384 297.454 228.833C297.618 228.224 297.823 227.664 298.069 227.154C298.315 226.639 298.573 226.19 298.843 225.81C299.024 225.563 299.209 225.341 299.396 225.142C299.59 224.942 299.78 224.772 299.968 224.632L299.625 223.56C299.332 223.724 299.024 223.949 298.702 224.236C298.38 224.523 298.061 224.869 297.744 225.273C297.422 225.678 297.114 226.141 296.821 226.662C296.534 227.184 296.279 227.758 296.057 228.385C295.834 229.018 295.655 229.703 295.521 230.441C295.392 231.18 295.327 231.968 295.327 232.806Z" fill="black"/>
<path d="M408.462 232.894V232.806C408.462 231.909 408.392 231.104 408.251 230.389C408.116 229.668 407.943 229 407.732 228.385C407.516 227.746 407.264 227.172 406.977 226.662C406.689 226.152 406.382 225.689 406.054 225.273C405.737 224.869 405.415 224.523 405.087 224.236C404.759 223.949 404.448 223.724 404.155 223.56L403.812 224.553C404.006 224.711 404.205 224.904 404.41 225.133C404.615 225.355 404.814 225.616 405.008 225.915C405.26 226.296 405.506 226.744 405.746 227.26C405.986 227.77 406.191 228.347 406.361 228.991C406.479 229.442 406.584 229.99 406.678 230.635C406.777 231.279 406.827 231.997 406.827 232.788V232.911C406.827 233.608 406.789 234.265 406.713 234.88C406.643 235.489 406.54 236.058 406.405 236.585C406.276 237.153 406.109 237.675 405.904 238.149C405.705 238.63 405.497 239.061 405.28 239.441C405.052 239.816 404.812 240.147 404.56 240.435C404.308 240.722 404.059 240.956 403.812 241.138L404.155 242.131C404.448 241.967 404.756 241.741 405.078 241.454C405.406 241.173 405.731 240.827 406.054 240.417C406.37 240.013 406.672 239.55 406.959 239.028C407.252 238.513 407.51 237.938 407.732 237.306C407.955 236.679 408.131 235.996 408.26 235.258C408.395 234.52 408.462 233.731 408.462 232.894Z" fill="black"/>
<path d="M70.5 249V240.469H70.4121L67.1836 241.711V242.701L69.416 241.852V249H70.5ZM79.4238 249V248.115H75.1406L77.4316 245.631C77.6465 245.396 77.8496 245.162 78.041 244.928C78.2363 244.689 78.4082 244.449 78.5566 244.207C78.7012 243.965 78.8164 243.721 78.9023 243.475C78.9883 243.225 79.0312 242.973 79.0312 242.719C79.0312 242.379 78.9707 242.064 78.8496 241.775C78.7324 241.486 78.5625 241.236 78.3398 241.025C78.1172 240.814 77.8438 240.65 77.5195 240.533C77.1992 240.412 76.8379 240.352 76.4355 240.352C75.998 240.352 75.6074 240.422 75.2637 240.562C74.9238 240.703 74.6367 240.893 74.4023 241.131C74.1641 241.369 73.9824 241.648 73.8574 241.969C73.7324 242.285 73.6699 242.623 73.6699 242.982H74.7598C74.7598 242.717 74.793 242.477 74.8594 242.262C74.9297 242.047 75.0352 241.863 75.1758 241.711C75.3125 241.562 75.4844 241.447 75.6914 241.365C75.9023 241.283 76.1504 241.242 76.4355 241.242C76.6699 241.242 76.8789 241.283 77.0625 241.365C77.25 241.443 77.4102 241.551 77.543 241.688C77.6719 241.824 77.7695 241.986 77.8359 242.174C77.9062 242.357 77.9414 242.555 77.9414 242.766C77.9414 242.938 77.9199 243.105 77.877 243.27C77.834 243.43 77.7617 243.6 77.6602 243.779C77.5586 243.963 77.4238 244.162 77.2559 244.377C77.0879 244.592 76.8789 244.838 76.6289 245.115L73.834 248.221V249H79.4238ZM86.6484 242.695C86.6484 242.324 86.584 241.994 86.4551 241.705C86.3262 241.412 86.1484 241.166 85.9219 240.967C85.6953 240.768 85.4277 240.615 85.1191 240.51C84.8105 240.404 84.4766 240.352 84.1172 240.352C83.7539 240.352 83.418 240.404 83.1094 240.51C82.8047 240.615 82.543 240.768 82.3242 240.967C82.1016 241.166 81.9277 241.412 81.8027 241.705C81.6777 241.994 81.6152 242.324 81.6152 242.695C81.6152 242.906 81.6445 243.107 81.7031 243.299C81.7617 243.49 81.8438 243.666 81.9492 243.826C82.0547 243.99 82.1836 244.139 82.3359 244.271C82.4883 244.4 82.6582 244.512 82.8457 244.605C82.627 244.699 82.4297 244.816 82.2539 244.957C82.0781 245.098 81.9277 245.256 81.8027 245.432C81.6777 245.611 81.582 245.809 81.5156 246.023C81.4492 246.234 81.416 246.459 81.416 246.697C81.416 247.088 81.4863 247.434 81.627 247.734C81.7676 248.035 81.9609 248.287 82.207 248.49C82.4492 248.697 82.7344 248.854 83.0625 248.959C83.3945 249.064 83.752 249.117 84.1348 249.117C84.5098 249.117 84.8613 249.064 85.1895 248.959C85.5176 248.85 85.8047 248.691 86.0508 248.484C86.293 248.281 86.4844 248.029 86.625 247.729C86.7695 247.428 86.8418 247.084 86.8418 246.697C86.8418 246.459 86.8066 246.234 86.7363 246.023C86.6699 245.812 86.5742 245.617 86.4492 245.438C86.3203 245.258 86.166 245.1 85.9863 244.963C85.8105 244.822 85.6133 244.705 85.3945 244.611C85.5195 244.549 85.6367 244.479 85.7461 244.4C85.8555 244.322 85.9551 244.238 86.0449 244.148C86.2324 243.961 86.3789 243.744 86.4844 243.498C86.5898 243.248 86.6445 242.98 86.6484 242.695ZM85.7578 246.674C85.7578 246.92 85.7168 247.141 85.6348 247.336C85.5566 247.527 85.4473 247.689 85.3066 247.822C85.1621 247.955 84.9902 248.057 84.791 248.127C84.5918 248.197 84.373 248.232 84.1348 248.232C83.8848 248.232 83.6582 248.197 83.4551 248.127C83.2559 248.057 83.0859 247.955 82.9453 247.822C82.8047 247.689 82.6953 247.527 82.6172 247.336C82.543 247.141 82.5059 246.92 82.5059 246.674C82.5059 246.436 82.543 246.217 82.6172 246.018C82.6953 245.818 82.8047 245.646 82.9453 245.502C83.0859 245.361 83.2559 245.252 83.4551 245.174C83.6543 245.096 83.877 245.057 84.123 245.057C84.3613 245.057 84.5801 245.096 84.7793 245.174C84.9824 245.252 85.1562 245.361 85.3008 245.502C85.4453 245.646 85.5566 245.818 85.6348 246.018C85.7168 246.217 85.7578 246.436 85.7578 246.674ZM85.5586 242.713C85.5586 242.932 85.5234 243.131 85.4531 243.311C85.3828 243.49 85.2852 243.643 85.1602 243.768C85.0312 243.896 84.8789 243.996 84.7031 244.066C84.5273 244.133 84.3359 244.166 84.1289 244.166C83.918 244.166 83.7246 244.133 83.5488 244.066C83.377 243.996 83.2285 243.896 83.1035 243.768C82.9746 243.643 82.875 243.492 82.8047 243.316C82.7383 243.137 82.7051 242.936 82.7051 242.713C82.7051 242.49 82.7383 242.289 82.8047 242.109C82.875 241.926 82.9727 241.77 83.0977 241.641C83.2227 241.512 83.3711 241.414 83.543 241.348C83.7148 241.277 83.9062 241.242 84.1172 241.242C84.3281 241.242 84.5215 241.279 84.6973 241.354C84.873 241.424 85.0254 241.523 85.1543 241.652C85.2793 241.785 85.377 241.941 85.4473 242.121C85.5215 242.301 85.5586 242.498 85.5586 242.713ZM93.9609 245.736V243.738C93.9609 243.195 93.8984 242.715 93.7734 242.297C93.6484 241.875 93.4688 241.52 93.2344 241.23C92.9961 240.941 92.7051 240.723 92.3613 240.574C92.0215 240.422 91.6328 240.346 91.1953 240.346C90.7617 240.346 90.373 240.422 90.0293 240.574C89.6895 240.723 89.4023 240.941 89.168 241.23C88.9297 241.52 88.748 241.875 88.623 242.297C88.498 242.715 88.4355 243.195 88.4355 243.738V245.736C88.4355 246.279 88.498 246.762 88.623 247.184C88.748 247.602 88.9297 247.953 89.168 248.238C89.4062 248.531 89.6973 248.752 90.041 248.9C90.3848 249.045 90.7734 249.117 91.207 249.117C91.6445 249.117 92.0332 249.043 92.373 248.895C92.7129 248.746 93 248.527 93.2344 248.238C93.4688 247.953 93.6484 247.602 93.7734 247.184C93.8984 246.762 93.9609 246.279 93.9609 245.736ZM89.5254 245.52C89.5254 245.418 89.5254 245.318 89.5254 245.221C89.5254 245.123 89.5254 245.025 89.5254 244.928V243.498C89.5254 243.1 89.5645 242.75 89.6426 242.449C89.7246 242.145 89.8477 241.896 90.0117 241.705C90.1484 241.553 90.3145 241.438 90.5098 241.359C90.709 241.277 90.9375 241.236 91.1953 241.236C91.4492 241.236 91.6719 241.273 91.8633 241.348C92.0586 241.422 92.2227 241.533 92.3555 241.682C92.4922 241.826 92.5996 242.008 92.6777 242.227C92.7598 242.441 92.8164 242.689 92.8477 242.971L89.5254 245.52ZM92.8711 245.965C92.8711 246.383 92.8281 246.746 92.7422 247.055C92.6602 247.363 92.5293 247.613 92.3496 247.805C92.2168 247.945 92.0547 248.053 91.8633 248.127C91.6719 248.201 91.4531 248.238 91.207 248.238C90.9727 248.238 90.7617 248.205 90.5742 248.139C90.3867 248.068 90.2266 247.967 90.0938 247.834C89.9492 247.693 89.832 247.516 89.7422 247.301C89.6523 247.082 89.5898 246.83 89.5547 246.545L92.8711 244.008C92.8711 244.117 92.8711 244.256 92.8711 244.424C92.8711 244.588 92.8711 244.699 92.8711 244.758V245.965ZM108.393 245.9V245.777C108.393 245.445 108.365 245.131 108.311 244.834C108.256 244.533 108.176 244.26 108.07 244.014C107.969 243.795 107.852 243.598 107.719 243.422C107.586 243.242 107.436 243.09 107.268 242.965C107.08 242.832 106.871 242.729 106.641 242.654C106.41 242.58 106.158 242.543 105.885 242.543C105.666 242.543 105.463 242.564 105.275 242.607C105.088 242.65 104.916 242.713 104.76 242.795C104.635 242.861 104.518 242.941 104.408 243.035C104.299 243.125 104.199 243.227 104.109 243.34V240H103.025V249H104.021L104.074 248.279C104.145 248.369 104.219 248.451 104.297 248.525C104.375 248.6 104.457 248.668 104.543 248.73C104.723 248.855 104.924 248.951 105.146 249.018C105.373 249.084 105.623 249.117 105.896 249.117C106.135 249.117 106.355 249.088 106.559 249.029C106.766 248.971 106.955 248.889 107.127 248.783C107.365 248.631 107.568 248.439 107.736 248.209C107.908 247.975 108.047 247.711 108.152 247.418C108.23 247.195 108.289 246.957 108.328 246.703C108.371 246.445 108.393 246.178 108.393 245.9ZM107.309 245.777V245.9C107.309 246.088 107.297 246.271 107.273 246.451C107.25 246.631 107.213 246.799 107.162 246.955C107.1 247.162 107.016 247.35 106.91 247.518C106.805 247.686 106.674 247.824 106.518 247.934C106.4 248.02 106.268 248.086 106.119 248.133C105.971 248.176 105.807 248.197 105.627 248.197C105.439 248.197 105.268 248.174 105.111 248.127C104.955 248.076 104.814 248.006 104.689 247.916C104.564 247.826 104.453 247.723 104.355 247.605C104.262 247.484 104.18 247.354 104.109 247.213V244.441C104.176 244.301 104.256 244.172 104.35 244.055C104.447 243.934 104.559 243.828 104.684 243.738C104.805 243.652 104.943 243.586 105.1 243.539C105.256 243.488 105.428 243.463 105.615 243.463C105.787 243.463 105.943 243.482 106.084 243.521C106.225 243.561 106.352 243.615 106.465 243.686C106.629 243.783 106.768 243.918 106.881 244.09C106.994 244.262 107.086 244.451 107.156 244.658C107.207 244.826 107.244 245.006 107.268 245.197C107.295 245.385 107.309 245.578 107.309 245.777ZM110.736 251.561C111.021 251.561 111.273 251.508 111.492 251.402C111.711 251.297 111.902 251.166 112.066 251.01C112.23 250.854 112.369 250.684 112.482 250.5C112.6 250.316 112.695 250.143 112.77 249.979L115.986 242.66H114.773L113.139 246.773L112.84 247.518L112.559 246.75L110.818 242.66H109.605L112.336 248.701L111.902 249.545C111.863 249.623 111.809 249.723 111.738 249.844C111.672 249.965 111.592 250.082 111.498 250.195C111.4 250.309 111.289 250.406 111.164 250.488C111.043 250.57 110.908 250.611 110.76 250.611C110.705 250.611 110.629 250.607 110.531 250.6C110.438 250.596 110.342 250.59 110.244 250.582L110.068 251.467C110.139 251.482 110.242 251.502 110.379 251.525C110.516 251.549 110.635 251.561 110.736 251.561ZM120 241.125H118.91V242.66H117.246V243.498H118.91V246.943C118.91 247.334 118.961 247.668 119.062 247.945C119.168 248.219 119.311 248.441 119.49 248.613C119.67 248.789 119.881 248.918 120.123 249C120.369 249.078 120.633 249.117 120.914 249.117C121.082 249.117 121.25 249.109 121.418 249.094C121.59 249.078 121.752 249.055 121.904 249.023C122.057 248.996 122.197 248.963 122.326 248.924C122.455 248.881 122.564 248.832 122.654 248.777L122.502 248.01C122.436 248.025 122.35 248.045 122.244 248.068C122.143 248.088 122.033 248.107 121.916 248.127C121.795 248.146 121.672 248.164 121.547 248.18C121.422 248.191 121.301 248.197 121.184 248.197C121.023 248.197 120.871 248.178 120.727 248.139C120.586 248.1 120.461 248.031 120.352 247.934C120.242 247.84 120.156 247.713 120.094 247.553C120.031 247.393 120 247.189 120 246.943V243.498H122.414V242.66H120V241.125ZM127.441 249.117C128.059 249.117 128.576 248.994 128.994 248.748C129.416 248.498 129.732 248.213 129.943 247.893L129.281 247.377C129.082 247.635 128.832 247.842 128.531 247.998C128.23 248.154 127.887 248.232 127.5 248.232C127.207 248.232 126.939 248.178 126.697 248.068C126.455 247.959 126.248 247.809 126.076 247.617C125.908 247.438 125.775 247.23 125.678 246.996C125.584 246.762 125.523 246.49 125.496 246.182V246.141H130.025V245.654C130.025 245.213 129.969 244.803 129.855 244.424C129.746 244.045 129.578 243.715 129.352 243.434C129.125 243.156 128.84 242.939 128.496 242.783C128.156 242.623 127.758 242.543 127.301 242.543C126.938 242.543 126.582 242.617 126.234 242.766C125.891 242.914 125.584 243.127 125.314 243.404C125.041 243.686 124.822 244.029 124.658 244.436C124.494 244.838 124.412 245.295 124.412 245.807V246.053C124.412 246.494 124.486 246.902 124.635 247.277C124.783 247.652 124.99 247.977 125.256 248.25C125.521 248.523 125.84 248.736 126.211 248.889C126.586 249.041 126.996 249.117 127.441 249.117ZM127.301 243.434C127.578 243.434 127.816 243.484 128.016 243.586C128.219 243.688 128.387 243.82 128.52 243.984C128.652 244.148 128.756 244.344 128.83 244.57C128.904 244.793 128.941 245.002 128.941 245.197V245.25H125.531C125.574 244.957 125.648 244.699 125.754 244.477C125.863 244.25 125.996 244.059 126.152 243.902C126.309 243.75 126.484 243.635 126.68 243.557C126.875 243.475 127.082 243.434 127.301 243.434ZM136.061 247.318C136.061 247.42 136.041 247.516 136.002 247.605C135.963 247.695 135.906 247.777 135.832 247.852C135.711 247.973 135.543 248.068 135.328 248.139C135.113 248.205 134.861 248.238 134.572 248.238C134.389 248.238 134.203 248.219 134.016 248.18C133.828 248.141 133.658 248.074 133.506 247.98C133.35 247.887 133.219 247.764 133.113 247.611C133.012 247.459 132.953 247.271 132.938 247.049H131.854C131.854 247.318 131.914 247.578 132.035 247.828C132.16 248.078 132.34 248.297 132.574 248.484C132.805 248.676 133.088 248.83 133.424 248.947C133.76 249.061 134.143 249.117 134.572 249.117C134.947 249.117 135.293 249.072 135.609 248.982C135.926 248.893 136.197 248.766 136.424 248.602C136.65 248.438 136.826 248.24 136.951 248.01C137.08 247.779 137.145 247.523 137.145 247.242C137.145 246.98 137.088 246.75 136.975 246.551C136.865 246.352 136.705 246.176 136.494 246.023C136.283 245.875 136.023 245.748 135.715 245.643C135.406 245.533 135.057 245.438 134.666 245.355C134.369 245.297 134.123 245.236 133.928 245.174C133.736 245.111 133.584 245.041 133.471 244.963C133.354 244.885 133.271 244.797 133.225 244.699C133.178 244.602 133.154 244.49 133.154 244.365C133.154 244.244 133.184 244.127 133.242 244.014C133.301 243.9 133.389 243.801 133.506 243.715C133.619 243.629 133.762 243.561 133.934 243.51C134.109 243.459 134.312 243.434 134.543 243.434C134.766 243.434 134.965 243.465 135.141 243.527C135.32 243.59 135.473 243.672 135.598 243.773C135.723 243.875 135.82 243.992 135.891 244.125C135.961 244.254 135.996 244.387 135.996 244.523H137.08C137.08 244.246 137.02 243.988 136.898 243.75C136.781 243.508 136.613 243.297 136.395 243.117C136.176 242.938 135.91 242.797 135.598 242.695C135.285 242.594 134.934 242.543 134.543 242.543C134.18 242.543 133.846 242.592 133.541 242.689C133.24 242.787 132.98 242.92 132.762 243.088C132.543 243.256 132.373 243.453 132.252 243.68C132.131 243.902 132.07 244.143 132.07 244.4C132.07 244.662 132.129 244.893 132.246 245.092C132.363 245.287 132.529 245.457 132.744 245.602C132.955 245.75 133.209 245.877 133.506 245.982C133.807 246.088 134.139 246.178 134.502 246.252C134.799 246.311 135.047 246.377 135.246 246.451C135.445 246.521 135.605 246.6 135.727 246.686C135.848 246.771 135.934 246.867 135.984 246.973C136.035 247.074 136.061 247.189 136.061 247.318Z" fill="black"/>
</svg>
